<svg xmlns="http://www.w3.org/2000/svg" xmlns:xlink="http://www.w3.org/1999/xlink" width="164.675" height="152.504" viewBox="0 0 164.675 152.504">
  <defs>
    <filter id="Icon_awesome-cubes" x="0" y="0" width="164.675" height="152.504" filterUnits="userSpaceOnUse">
      <feOffset dy="3" input="SourceAlpha"/>
      <feGaussianBlur stdDeviation="3" result="blur"/>
      <feFlood flood-opacity="0.161"/>
      <feComposite operator="in" in2="blur"/>
      <feComposite in="SourceGraphic"/>
    </filter>
  </defs>
  <g transform="matrix(1, 0, 0, 1, 0, 0)" filter="url(#Icon_awesome-cubes)">
    <path id="Icon_awesome-cubes-2" data-name="Icon awesome-cubes" d="M139.972,67.759,112.3,56.892V24.32a10.8,10.8,0,0,0-6.7-10.117L76.947,2.946a9.757,9.757,0,0,0-7.248,0L41.052,14.2a10.8,10.8,0,0,0-6.7,10.117V56.892L6.675,67.759A10.817,10.817,0,0,0,0,77.876v33.052a10.883,10.883,0,0,0,5.7,9.666L34.348,135.6a9.837,9.837,0,0,0,9.224,0l29.765-15.61L103.1,135.6a9.837,9.837,0,0,0,9.225,0l28.648-15.01a10.883,10.883,0,0,0,5.7-9.666V77.876a10.8,10.8,0,0,0-6.7-10.117ZM102.558,57.132l-24.35,9.576V46.235l24.35-11.107ZM44.117,23.9l29.22-11.468L102.558,23.9v.18L73.338,36.508,44.117,24.08Zm24.064,87.388-24.35,12.758V100.3l24.35-11.648Zm0-33.622L38.961,90.094,9.74,77.665v-.18l29.22-11.468,29.22,11.468Zm68.754,33.622-24.35,12.758V100.3l24.35-11.648Zm0-33.622-29.22,12.428L78.494,77.665v-.18l29.22-11.468,29.22,11.468Z" transform="translate(9 3.75)" fill="#b5b5b5"/>
  </g>
</svg>
