<?xml version="1.0" encoding="UTF-8"?>
<svg enable-background="new 0 0 750 500" version="1.1" viewBox="0 0 750 500" xml:space="preserve" xmlns="http://www.w3.org/2000/svg" xmlns:xlink="http://www.w3.org/1999/xlink">
<style type="text/css">
	.st0{fill:#A6B9E8;}
	.st1{fill:#F1EDED;}
	.st2{fill:#4986A2;}
	.st3{fill:#A87969;}
	.st4{fill:#707086;}
	.st5{fill:#683F35;}
	.st6{fill:#DEA258;}
	.st7{fill:#EFCAB9;}
	.st8{fill:#1C1C37;}
	.st9{fill:#985957;}
	.st10{opacity:8.000000e-02;fill:#FF7471;}
	.st11{opacity:0.44;}
	.st12{fill:#925949;}
	.st13{fill:#FDFDFF;}
	.st14{opacity:0.22;}
	.st15{fill:#FF7471;}
	.st16{fill:#DBAA49;}
	.st17{fill:#BA616A;}
	.st18{fill:#4D3856;}
	.st19{fill:#EEB391;}
	.st20{fill:#E18958;}
	.st21{fill:#371C1D;}
	.st22{fill:#704035;}
	.st23{fill:#70453A;}
	.st24{fill:#57395C;}
	.st25{fill:#C28365;}
	.st26{fill:#793F3D;}
	.st27{fill:none;}
	.st28{opacity:0.68;}
	.st29{fill:#964551;}
	.st30{fill:none;stroke:#38384F;stroke-width:3.000000e-02;stroke-miterlimit:10;}
	.st31{fill:#D1D1E5;}
	.st32{fill:#B35B46;}
	.st33{fill:#DBA87B;}
	.st34{opacity:0.14;fill:#E18958;}
	.st35{fill:#638FCE;}
	.st36{opacity:0.13;}
	.st37{fill:#E87795;}
	.st38{fill:#704949;}
	.st39{fill:#E5805B;}
	.st40{fill:none;stroke:#704949;stroke-width:0.5;stroke-miterlimit:10;}
	.st41{fill:#305A68;}
</style>
		<defs>
			<rect id="a" y="145.8" width="750" height="354.2"/>
		</defs>
		<clipPath>
			<use xlink:href="#a"/>
		</clipPath>
		<path class="st0" d="m620.7 504.1l-0.6-123.8 78.7-8.9-6.2 132.7h-35l4.4-83.7s-6.6-8.6-5.5 22.8c0.4 11.8-4 60.9-4 60.9h-31.8z"/>
		<path class="st1" d="m568.5 281.4s26.4-1.1 33.8-2.3 53.8-13.2 53.8-13.2l9.8 20.2s-60.9 17.4-77.3 21.4l-21.5-24.4"/>
		<path class="st2" d="m658 250.1s-32.8 4.9-34.9 23.5c-0.7 6.4 3.5 24.9 2 40.8-2.9 30.3-5.3 62.5-5.3 62.5s3.7 26 30.5 19.1 32.4-18.6 32.4-18.6 10.9 16.7 15.3 16.7l2.9-75.8-0.9-25.7c0.5-7.7 1.5-23.4-3.6-29.3-3.4-4-8-7.3-14.2-7.6-15.8-0.9-24.2-5.6-24.2-5.6z"/>
		<path class="st3" d="m224.4 498.1l-0.6-116.5 78.7-8.4-6.2 124.9h-35l-1-77.5s-5-8.4-3.9 21.2c0.4 11.1-0.2 56.3-0.2 56.3h-31.8z"/>
		<path class="st4" d="m234.2 264.4s-25.1 26.8-25.8 28.2 13.6 26.4 13.6 26.4l11.8-12.5 0.4-42.1z"/>
		<path class="st4" d="m264.8 251.2s-32.8 4.9-34.9 23.5c-0.7 6.4 0.4 24.4-1.1 40.3-2.9 30.3-8.6 63-8.6 63s10.1 25.9 36.9 19 32.4-18.6 32.4-18.6 9.3 15 13.8 15l4.5-74.2 3.7-26.7c0.5-7.7-3.1-22.4-8.2-28.3-3.4-4-8-7.3-14.2-7.6-15.9-0.7-24.3-5.4-24.3-5.4z"/>
		<path class="st5" d="m518.6 331.9s4.9 21.4 7.7 20.8 26.3-9.4 26.3-9.4l5.6 13.5s-35.8 24.1-45.6 10.6-13.8-25.3-13.8-25.3l19.8-10.2z"/>
		<path class="st4" d="m535.6 366.2s-13.3 22.6-12 60.2c1.1 31.8-13.4 74.8-9.8 76.6s17.9 7.1 29.3 5.9 48.9 3.5 55.7-8.2c0 0 3.1-4.1 2.7-7.7-0.4-3.5 3.8-110.9-15.3-131-0.2-0.1-47.5-13.6-50.6 4.2z"/>
		<path class="st6" d="m445.1 385.4c-11.5 29.8-9.1 63.4-6.3 95.6 0.7 7.8 1.7 16.3 6.8 21.9 6.8 7.4 17.8 6.6 27.3 5.3 3.3-0.5 7-1.1 9.1-4 1.5-2 1.9-4.6 2-7.2 0.5-7.8-0.5-15.7-0.4-23.5s1.4-16.1 6-22.1c3 15.6 5.9 31.2 8.9 46.9 0.5 2.4 1 4.9 2.5 6.7 2.5 3.1 6.8 3.2 10.5 3 5.2-0.2 11.1-0.7 14.4-5 2.2-2.8 2.8-6.7 3.2-10.4 3.6-33.1-2.3-67.4-16.7-96.9-3.4-6.9-7.4-13.7-13.4-17.9-7.2-5-16.3-5.4-24.7-4.3-8.5 1.1-16.7 3.6-25.3 4.1"/>
		<path class="st1" d="m434.1 294.2s8.1-25.4 61.6-17.1c30.4 4.7 45 7.5 45 7.5l-3.5 27.2-103.1-17.6"/>
			<path class="st7" d="m411 309.2s0.1 25.6 3.9 26 32.4-33.1 32.4-33.1l11.4 8.4s-33.6 65.2-54.8 44.8c-18.9-18.2-14.5-37.9-14.5-37.9l21.6-8.2z"/>
				<path class="st7" d="m446.6 307.8s-0.1-9.6 1.5-12.9c1.5-3.2 3.9-9.4 4.4-8.9 0.5 0.6 2.3 1.8 1.7 4.6s-0.4 5.6 0.5 5.6 5.7-2.7 7.2-3.8 12.9-5 13.1-4.7c0.2 0.2 1.2 1.8-1.8 3.7-3.1 1.8-8.2 4.8-8.2 4.8l12.6-4.2s1.2 2.4-0.3 3.2l-10.8 4.2 11.2-3.5s0.8 1.5-1.6 2.6c-2.4 1.2-8.8 3.2-8.8 3.2l8.4-2s0.9 1.3-2.5 2.5-14.4 8.3-14.4 8.3l-12.2-2.7z"/>
		<path class="st5" d="m423.1 334.3s-4.9 21.4-7.7 20.8-26.3-9.4-26.3-9.4l-5.6 13.5s35.8 24.1 45.6 10.6 13.8-25.3 13.8-25.3l-19.8-10.2z"/>
				<path class="st8" d="m464.3 208.8c0.1 0.1-0.6 0.6-1.5 1.1s-1.7 0.8-1.7 0.7c-0.1-0.1 0.6-0.6 1.5-1.1s1.6-0.8 1.7-0.7z"/>
				<path class="st8" d="m452.8 217.1c-2.9-1.9-4.1-5.9-2.6-9 1.4-3.1 5.3-4.9 8.6-3.9 0.4-5.1 4.3-9.8 9.3-10.9s10.6 1.3 13.2 5.7c2.9-1.9 6.8-2.3 10-1s5.8 4.2 6.6 7.6c3.7 0.9 6.5 4.6 6.4 8.4-0.2 3.8-3.3 7.3-7.1 7.8"/>
				<path class="st6" d="m453.2 244.8c-4.8-0.9-7.8-6.2-7.5-11s3.4-9.1 7.1-12.2c-1.1-0.6-1.5-2.1-1.3-3.3s1-2.3 1.7-3.3c4.5-5.8 11.1-10 18.3-11.6s14.9-0.7 21.5 2.7c3 1.5 5.9 3.6 7.5 6.6s1.8 6.9-0.2 9.6c-1 1.4-2.7 2.6-2.7 4.3 0 1.3 0.8 2.3 1.4 3.4 1.6 2.8 1.9 6.2 0.9 9.2s-3.4 5.5-6.3 6.7"/>
				<path class="st9" d="m501.4 287.6s11.1 1.3 21.3 32.1l5.7 12.4-24.9 21.7-15.8-21.8 13.7-44.4z"/>
				<path class="st9" d="m440.7 288.7s-10.9 2.4-17.8 34.1l-4.4 12.9 27 19 13.5-23.2-18.3-42.8z"/>
				<path class="st9" d="m466.6 281.9s-27.9 0.9-30.7 14.3 16.9 64 16.9 64 0.8 1.1-0.1 3.7-11.9 29.8-13.6 36.7c0 0 10.1-5.4 20.5 0s22.9 16.8 41 12.3 18.8-16 18.8-16l-16.6-39.3s9.3-43.6 8.6-54.2c-0.6-10.6-7.8-16.8-19.9-19.4s-24.9-2.1-24.9-2.1z"/>
				<path class="st5" d="m464.4 267.2v12.6s-12 5.1-13.9 7.7l25 18 21.6-19.1s-4.1-2.5-12.2-6.7v-12.4h-20.5z"/>
				<path class="st10" d="m464.4 273.3s12.7-0.9 20.5-1.6v5s-11.2 9.1-20.5-0.9v-2.5z"/>
				<path class="st5" d="m467.9 226c-8.7 2.3-14.5 10.5-13.9 19.5 0.9 13.1 4.7 31.6 19.9 30.4 23.3-1.9 20.3-31.2 19.2-40.6 0 0-3.2-10.9-19.3-10.5-2.2-0.1-4.1 0.7-5.9 1.2z"/>
				<path class="st5" d="m492.4 254.5c1.8 1.5 3.9 1.9 5.4 0.1s1.9-4.4 1.1-6.7c-1-3.2-3.9-3.3-6.1-1.6"/>
				<g class="st11">
					<path class="st12" d="m494.6 252.4c-0.5-0.1-1 0.4-1 0.9 0.1 0.5 0.6 0.9 1.1 0.9s1-0.2 1.4-0.6 0.6-0.8 0.9-1.3c0.4-0.7 0.9-1.5 0.9-2.4 0-1.1-0.7-2.1-1.7-2.5s-2.2-0.1-2.9 0.7c-0.2 0.2-0.3 0.5-0.1 0.6 0.2 0.2 0.5 0.1 0.7 0.1 0.8-0.1 1.6 0.5 1.7 1.3 0.2 1-0.2 2.3-1 2.3"/>
				</g>
					<path class="st8" d="m473.8 258.5s-0.1 0.3-0.6 0.4-1.4-0.2-1.7-1.1-0.1-1.9-0.1-3.1c0.1-1.2 0.2-2.4 0.3-3.7 0.2-2.6 0.4-5 0.6-6.7s0.3-2.8 0.4-2.8 0 1.1-0.1 2.8-0.2 4.1-0.4 6.7c-0.1 1.3-0.2 2.5-0.3 3.7-0.1 1.1-0.3 2.2 0 2.9 0.2 0.8 1 1.1 1.4 1.1 0.3 0 0.5-0.3 0.5-0.2z"/>
					<path class="st13" d="m478.4 247.9c0.1-2.7 2.2-5.2 4.9-5.7 2.6-0.5 5.5 1 6.6 3.5"/>
						<path class="st8" d="m489.9 245.7c-0.2 0.1-0.5-0.8-1.6-1.6-1-0.9-2.9-1.7-4.9-1.4-2 0.4-3.4 1.9-4.1 3.1s-0.7 2.1-0.9 2.1c-0.1 0-0.3-1 0.3-2.4 0.5-1.4 2.1-3.3 4.5-3.7s4.6 0.7 5.6 1.8 1.2 2.1 1.1 2.1z"/>
					<path class="st8" d="m482.1 242.5c-0.6 0.5-0.9 1.3-0.8 2.1s0.4 1.5 1 2c0.4 0.3 0.8 0.6 1.3 0.5 0.4 0 0.8-0.3 1.1-0.6s0.4-0.7 0.5-1.1c0.2-0.6 0.2-1.3 0-1.9s-0.7-1.2-1.3-1.3c-0.6-0.2-1.4 0-1.7 0.6"/>
					<path class="st13" d="m469.7 248.3c-0.1-2.7-2.2-5.2-4.9-5.7-2.6-0.5-5.5 1-6.6 3.5"/>
						<path class="st8" d="m458.2 246.2c-0.1 0 0-1 1.1-2.2 1-1.1 3.1-2.3 5.6-1.8 2.4 0.5 4 2.3 4.5 3.7 0.6 1.4 0.4 2.4 0.3 2.4-0.2 0-0.2-0.9-0.9-2.1-0.6-1.2-2.1-2.7-4.1-3.1s-3.9 0.5-4.9 1.4c-1.1 0.9-1.4 1.8-1.6 1.7z"/>
					<path class="st8" d="m466 243c0.6 0.5 0.9 1.3 0.8 2.1s-0.4 1.5-1 2c-0.4 0.3-0.8 0.6-1.3 0.5-0.4 0-0.8-0.3-1.1-0.6s-0.4-0.7-0.5-1.1c-0.2-0.6-0.2-1.3 0-1.9s0.7-1.2 1.3-1.3c0.6-0.2 1.4 0 1.7 0.6"/>
					<path class="st8" d="m482.1 258.3c-0.1 0.1-0.6-0.6-1.5-0.6-0.9-0.1-1.5 0.5-1.6 0.4-0.1 0 0.5-0.9 1.6-0.8 1.2 0 1.6 1 1.5 1z"/>
				<g class="st14">
					<path class="st15" d="m474.1 262.6c0.1-0.7 0.6-1.4 1.3-1.9 0.7-0.4 1.5-0.7 2.3-0.9 0.6-0.2 1.2-0.3 1.8-0.1 0.7 0.2 1 0.9 1 1.6-0.1 0.6-0.5 1.2-1 1.7-0.8 0.7-1.9 1.1-3 1.1-1.1-0.1-2.2-0.8-2.5-1.7"/>
				</g>
					<path class="st8" d="m480.9 257.1s0 0.7-0.5 1.6c-0.4 1-1.3 2.2-2.7 3.1s-2.9 1.3-3.9 1.3c-1.1 0.1-1.7-0.1-1.7-0.2s0.7 0 1.7-0.1 2.4-0.5 3.7-1.4 2.2-2 2.7-2.9c0.4-0.8 0.6-1.4 0.7-1.4z"/>
				<path class="st8" d="m458.4 239.3c3.1 0.9 6.4 1.2 9.6 1.1 0.5 0 0.9 0 1.4-0.2 0.4-0.2 0.8-0.6 0.8-1.1 0-0.7-0.8-1.2-1.4-1.4-3-1.1-6.4-1-9.4 0.2-0.3 0.1-0.7 0.3-0.8 0.6s0.1 0.8 0.4 0.7"/>
					<path class="st8" d="m482.3 251.4c-0.1 0.1-0.3 0-0.3-0.1-0.1-0.1-0.1-0.3 0-0.4s0.3 0 0.3 0.1c0.1 0.1 0.1 0.3 0 0.4z"/>
					<ellipse class="st8" cx="484.8" cy="250.4" rx=".2" ry=".2"/>
					<path class="st8" d="m487.4 250.2c-0.1 0-0.2-0.2-0.2-0.3s0.2-0.2 0.3-0.2 0.2 0.2 0.2 0.3-0.1 0.2-0.3 0.2z"/>
					<path class="st8" d="m497.9 251.1c-0.1 0 0.4-0.9-0.1-2.3-0.2-0.7-0.8-1.3-1.7-1.6s-2 0.1-2.4 1.1c-0.2 0.3-0.2 0.7-0.2 1.1h-0.4c0.4-1.2 1.9-1.3 2.6-0.6s0.7 1.6 0.4 2.2-0.7 0.9-1 1.1-0.5 0.2-0.5 0.2c-0.1-0.1 0.7-0.4 1.2-1.5 0.2-0.5 0.1-1.3-0.4-1.8s-1.7-0.4-1.9 0.4c0 0.1-0.2 0.2-0.3 0.1-0.1 0-0.1-0.1-0.2-0.2-0.1-0.4 0-0.9 0.2-1.4 0.3-0.5 0.7-1 1.3-1.2 0.5-0.2 1.1-0.2 1.6-0.1 1 0.3 1.7 1.1 1.9 1.8s0.2 1.4 0.1 1.8c0 0.8-0.2 1-0.2 0.9z"/>
					<path class="st8" d="m461.2 250.2c0.1 0.1 0.1 0.3 0 0.5s-0.3 0.3-0.4 0.3c-0.1-0.1-0.1-0.3 0-0.5s0.3-0.3 0.4-0.3z"/>
					<path class="st8" d="m464.2 250.8c0.1 0 0.2 0.1 0.2 0.2s-0.1 0.2-0.2 0.2-0.2-0.1-0.2-0.2 0.1-0.2 0.2-0.2z"/>
					<path class="st8" d="m468 251.2c0.1 0 0.2 0.2 0.3 0.4 0 0.2-0.1 0.4-0.2 0.4s-0.2-0.2-0.3-0.4c0-0.2 0.1-0.4 0.2-0.4z"/>
					<path class="st16" d="m496.6 254.2h0.5c0.3 0 0.8 0.1 1.4 0.2 1.2 0.3 2.9 0.9 4.6 2.3 1.7 1.3 3.4 3.5 4.1 6.3s0.3 6.2-1.6 9-5.1 4.3-7.9 4.5c-2.9 0.3-5.5-0.9-7.1-2.3-1.7-1.4-2.5-3-2.9-4.2s-0.4-1.8-0.4-1.8 0.1 0.7 0.6 1.8c0.4 1.1 1.3 2.7 2.9 4 1.6 1.4 4.1 2.4 6.9 2.2s5.8-1.7 7.6-4.4 2.2-6 1.6-8.7-2.3-4.8-3.9-6.2c-1.7-1.3-3.3-2-4.4-2.3-1.4-0.3-2-0.3-2-0.4z"/>
				<path class="st8" d="m477.8 240.8c3.2 0 6-0.2 9.1-1.2 0.4-0.1 0.9-0.3 1.3-0.6s0.6-0.8 0.5-1.2c-0.2-0.7-1-1-1.8-1-3.2-0.3-6.5 0.7-9 2.6-0.3 0.2-0.6 0.5-0.6 0.8-0.1 0.3 0.2 0.7 0.5 0.6"/>
					<path class="st8" d="m498.6 229.4s-0.4-0.6-1.2-1.6-2.1-2.4-3.9-3.8c-3.6-2.9-9.6-5.6-16.6-6.2s-13.4 0.7-17.9 1.8c-2.3 0.5-4.1 1-5.3 1.4-0.6 0.1-1 0.3-1.4 0.4-0.3 0.1-0.5 0.1-0.5 0.1s0.2-0.1 0.5-0.2c0.4-0.1 0.9-0.3 1.4-0.5 1.2-0.4 3-0.9 5.3-1.5 4.5-1.1 10.9-2.5 18-1.9s13.2 3.4 16.8 6.4c1.8 1.5 3.1 2.9 3.8 4 0.4 0.5 0.6 1 0.8 1.2s0.2 0.4 0.2 0.4z"/>
					<path class="st8" d="m469.4 218.1l-1.2 0.6c-0.7 0.4-1.8 0.9-3.1 1.7-2.5 1.6-5.7 4.3-8.1 8.2s-3.4 7.9-3.7 10.9c-0.2 1.5-0.2 2.7-0.2 3.5v1.3s0-0.1-0.1-0.3c0-0.2-0.1-0.5-0.1-1-0.1-0.8-0.1-2.1 0-3.5 0.2-3 1.2-7.1 3.7-11 2.4-3.9 5.7-6.7 8.3-8.2 1.3-0.8 2.4-1.3 3.2-1.6 0.4-0.2 0.7-0.3 0.9-0.3 0.3-0.2 0.4-0.3 0.4-0.3z"/>
					<path class="st8" d="m489.2 204.4s0.2 0.2 0.4 0.6 0.5 1 0.7 1.8c0.5 1.5 0.7 3.9-0.1 6.3s-2.5 4.1-3.8 5c-0.7 0.5-1.3 0.8-1.7 0.9-0.4 0.2-0.7 0.2-0.7 0.2 0-0.1 0.9-0.4 2.2-1.4s2.8-2.6 3.6-4.9 0.6-4.6 0.2-6.1-0.9-2.4-0.8-2.4z"/>
					<path class="st8" d="m462.4 214.9c-0.1 0.1-0.8-2-0.3-4.6s1.8-4.3 1.9-4.2-1 1.8-1.5 4.3 0 4.5-0.1 4.5z"/>
					<path class="st8" d="m467.2 212.8c-0.1 0-0.7-1.9-0.3-4.3s1.5-4.1 1.6-4-0.8 1.8-1.2 4.1 0 4.2-0.1 4.2z"/>
					<path class="st8" d="m472 213.5c-0.1 0-0.4-2.1 0-4.6 0.4-2.6 1.2-4.5 1.3-4.5s-0.5 2-0.9 4.5c-0.4 2.6-0.3 4.6-0.4 4.6z"/>
					<path class="st8" d="m476.7 213.5c-0.1 0 0.2-2.3 0.8-5 0.5-2.7 1.1-4.9 1.2-4.9s-0.2 2.3-0.8 5c-0.6 2.8-1.1 5-1.2 4.9z"/>
					<path class="st8" d="m480.7 213.5c-0.1-0.1 0.8-2.1 1.6-4.8s1-4.9 1.1-4.9 0.1 2.3-0.7 5c-0.8 2.8-1.9 4.8-2 4.7z"/>
					<path class="st8" d="m483.7 214.1c-0.1 0 0.5-2.4 1.5-5.2s2-5 2.1-5-0.7 2.3-1.7 5.1-1.8 5.1-1.9 5.1z"/>
					<path class="st8" d="m458.5 216.9c-0.1 0.1-0.9-1.5-0.8-3.5 0-2.1 0.8-3.6 0.9-3.5 0.1 0-0.4 1.6-0.4 3.5-0.1 1.9 0.4 3.5 0.3 3.5z"/>
					<path class="st8" d="m454.4 219.3c-0.1 0.1-0.8-0.8-1.1-2-0.3-1.3-0.1-2.3 0-2.3s0.1 1 0.4 2.2 0.8 2 0.7 2.1z"/>
					<path class="st8" d="m460 217c0 0.1-0.8 0.6-1.8 1.3s-1.6 1.3-1.7 1.3c-0.1-0.1 0.5-0.9 1.5-1.6 1-0.8 2-1.1 2-1z"/>
					<path class="st8" d="m465.9 215.5c0 0.1-1.3 0.7-2.8 1.7s-2.5 2.1-2.6 2 0.8-1.3 2.4-2.4c1.5-1 2.9-1.4 3-1.3z"/>
					<path class="st8" d="m471.9 214c0.1 0.1-1.4 0.9-3.1 2s-2.9 2.2-3 2.1 1-1.3 2.7-2.4c1.8-1.3 3.4-1.8 3.4-1.7z"/>
					<path class="st8" d="m477.2 214.2c0 0.1-1.7 0.6-3.6 1.5s-3.3 1.9-3.4 1.8 1.3-1.3 3.2-2.2c2-0.9 3.8-1.2 3.8-1.1z"/>
					<path class="st8" d="m480 214.4c0.1 0.1-1.2 0.8-2.5 1.7-1.4 1-2.4 1.9-2.5 1.8s0.8-1.2 2.2-2.1c1.4-1 2.8-1.5 2.8-1.4z"/>
					<path class="st8" d="m482.5 215.5c0.1 0.1-0.6 0.7-1.5 1.4s-1.7 1.1-1.7 1c-0.1-0.1 0.6-0.7 1.5-1.4 0.9-0.6 1.6-1.1 1.7-1z"/>
					<path class="st8" d="m491.8 221.8c-0.1 0.1-0.7-1-1.4-2.4s-1.1-2.6-1-2.6 0.7 1 1.4 2.4 1.1 2.6 1 2.6z"/>
					<path class="st8" d="m494.3 222.6c-0.1 0-0.7-1.5-1.2-3.6-0.5-2-0.6-3.7-0.5-3.7s0.4 1.6 0.9 3.6c0.5 2.1 0.9 3.7 0.8 3.7z"/>
					<path class="st8" d="m497.3 222.6c-0.1 0-0.8-1.7-1.5-3.8s-1.2-3.9-1-3.9c0.1 0 0.8 1.7 1.5 3.8 0.7 2.2 1.1 3.9 1 3.9z"/>
					<path class="st8" d="m499.4 221.8c-0.1 0-0.6-1.3-1-3-0.5-1.7-0.7-3-0.6-3.1 0.1 0 0.6 1.3 1 3 0.5 1.7 0.7 3.1 0.6 3.1z"/>
					<path class="st8" d="m501.6 214.1c0.1 0.1-0.4 0.7-1.1 1.4s-1.3 1.2-1.4 1.1 0.4-0.7 1.1-1.4 1.3-1.2 1.4-1.1z"/>
					<path class="st8" d="m500.2 212.4c0.1 0.1-0.8 0.7-1.9 1.2-1.1 0.6-2.1 0.9-2.1 0.8-0.1-0.1 0.8-0.7 1.9-1.2 1.1-0.6 2-1 2.1-0.8z"/>
					<path class="st8" d="m497.9 210.2c0.1 0.1-1.1 1.3-2.8 2.4s-3.3 1.7-3.4 1.6c0-0.1 1.4-0.8 3.1-1.9 1.8-1.1 3.1-2.2 3.1-2.1z"/>
					<path class="st8" d="m496.7 208c0.1 0.1-0.9 1.2-2.4 2.3s-2.9 1.7-2.9 1.6c-0.1-0.1 1.2-0.9 2.7-1.9 1.4-1.1 2.5-2.1 2.6-2z"/>
					<path class="st8" d="m494.6 241c-0.1-0.1 0.9-1.2 2.2-2.4s2.4-2.2 2.5-2.1-0.9 1.2-2.2 2.4-2.5 2.2-2.5 2.1z"/>
					<path class="st8" d="m493.4 237.9c-0.1-0.1 0.9-1.2 2.3-2.5s2.5-2.3 2.6-2.2-0.9 1.2-2.3 2.5c-1.3 1.3-2.5 2.2-2.6 2.2z"/>
					<path class="st8" d="m493.3 234.2c-0.1-0.1 1.1-1.2 2.6-2.5s2.8-2.3 2.9-2.2-1.1 1.2-2.6 2.5c-1.6 1.3-2.9 2.3-2.9 2.2z"/>
					<path class="st8" d="m494.4 232.6c-0.1 0.1-1.7-1.4-3.4-3.5-1.8-2.1-3-3.9-2.9-4s1.5 1.6 3.3 3.7c1.7 2 3.1 3.7 3 3.8z"/>
					<path class="st8" d="m495.5 230.9c-0.1 0.1-1-0.9-2.1-2.2s-1.9-2.4-1.8-2.5 1 0.9 2.1 2.2 1.9 2.4 1.8 2.5z"/>
					<path class="st8" d="m490.9 222.6c0.1 0.1-1 1.2-2.6 2.3s-3.1 1.6-3.1 1.5c-0.1-0.1 1.3-0.8 2.9-1.9 1.5-1 2.7-2 2.8-1.9z"/>
					<path class="st8" d="m487 220.8s0.1-0.2 0-0.3h0.2c-0.3 0.5-0.8 1.3-1.4 2.1-1 1.4-1.9 2.4-2 2.3s0.6-1.2 1.6-2.6c0.6-0.9 1.2-1.6 1.6-2l0.1-0.1 0.1 0.1c0.2 0.2 0.1 0.4 0.1 0.5h-0.3z"/>
					<path class="st8" d="m484 219.4c0.1 0-0.2 1.2-0.8 2.6s-1.1 2.5-1.2 2.5 0.2-1.2 0.8-2.6c0.5-1.4 1-2.5 1.2-2.5z"/>
					<path class="st8" d="m478.8 224.6c-0.1 0 0-1.1 0.3-2.4s0.6-2.3 0.7-2.3 0 1.1-0.3 2.4-0.6 2.3-0.7 2.3z"/>
					<path class="st8" d="m475.7 224.7c-0.1 0-0.1-1.3 0.3-2.9s1-2.7 1.1-2.6-0.3 1.2-0.7 2.8c-0.4 1.5-0.6 2.7-0.7 2.7z"/>
					<path class="st8" d="m474.4 223.6c-0.1 0-0.4-1-0.4-2.3s0.4-2.3 0.5-2.3-0.1 1.1-0.1 2.3c0 1.3 0.1 2.3 0 2.3z"/>
					<path class="st8" d="m472 224.7c-0.1 0-0.6-0.9-0.7-2.2-0.2-1.3 0-2.3 0.1-2.3s0.1 1 0.3 2.2c0.2 1.3 0.5 2.3 0.3 2.3z"/>
					<path class="st8" d="m468.2 226.2c-0.1 0.1-1-0.6-2-1.5s-1.8-1.7-1.7-1.8 1 0.6 2 1.5c1.1 0.9 1.8 1.7 1.7 1.8z"/>
					<path class="st8" d="m469.8 224.4c-0.1 0.1-1-0.6-2-1.5s-1.8-1.7-1.7-1.8 1 0.6 2 1.5 1.7 1.7 1.7 1.8z"/>
					<path class="st8" d="m463.2 228.1c-0.1 0.1-0.8-0.5-1.5-1.3-0.8-0.8-1.3-1.5-1.2-1.6s0.8 0.5 1.5 1.3 1.3 1.6 1.2 1.6z"/>
					<path class="st8" d="m465.2 226.5c-0.1 0.1-0.6-0.4-1.2-1.1s-1-1.3-0.9-1.4 0.6 0.4 1.2 1.1 1 1.4 0.9 1.4z"/>
					<path class="st8" d="m458.2 231.2c-0.1 0-0.3-0.5-0.4-1.1-0.1-0.7-0.1-1.2 0-1.2s0.3 0.5 0.4 1.1 0.1 1.2 0 1.2z"/>
					<path class="st8" d="m451.6 238.3c0.1 0.1-0.6 1-1.6 1.9-1.1 0.9-2.1 1.4-2.2 1.3s0.8-0.7 1.9-1.6c1-0.9 1.8-1.7 1.9-1.6z"/>
					<path class="st8" d="m452.2 235c0.1 0.1-1.1 1.3-2.7 2.5s-3.1 1.9-3.2 1.8 1.3-1 2.9-2.2 2.9-2.2 3-2.1z"/>
					<path class="st8" d="m454 231.7s0.1-0.1 0.4-0.1h0.3l-0.3 0.2c-0.6 0.4-2.1 1.4-3.8 2.4-2.3 1.4-4.2 2.4-4.3 2.3s1.8-1.3 4.1-2.6c1.8-1 3.3-1.9 4-2.2v0.2c-0.3-0.1-0.4-0.1-0.4-0.2z"/>
					<path class="st8" d="m454.9 228.6c0.1 0.1-2.1 1.3-4.7 2.9s-4.7 2.9-4.7 2.8c-0.1-0.1 1.9-1.6 4.5-3.2s4.8-2.6 4.9-2.5z"/>
					<path class="st8" d="m449.5 229.9c-0.1 0.1-0.6-0.3-1.3-0.8-0.6-0.5-1.1-1.1-1-1.1 0.1-0.1 0.6 0.3 1.3 0.8s1.1 1 1 1.1z"/>
					<path class="st8" d="m451.5 229.4c-0.1 0.1-0.8-0.2-1.4-1-0.7-0.7-0.9-1.5-0.8-1.6s0.5 0.6 1.1 1.3c0.5 0.7 1.1 1.1 1.1 1.3z"/>
					<path class="st8" d="m454.1 229.2c-0.1 0.1-1.2-0.5-2.3-1.7s-1.6-2.3-1.5-2.4 0.8 1 1.8 2.1c1.1 1.2 2.1 1.9 2 2z"/>
					<path class="st8" d="m457.5 227.6c0 0.1-1.7-0.7-3.3-2.2s-2.5-3-2.4-3.1 1.2 1.3 2.7 2.8c1.5 1.4 3 2.4 3 2.5z"/>
					<path class="st8" d="m459 226.6c-0.1 0.1-1.1-1.1-2.2-2.7-1.1-1.5-1.9-2.9-1.8-2.9 0.1-0.1 1.1 1.1 2.2 2.7 1.1 1.5 1.9 2.8 1.8 2.9z"/>
					<path class="st8" d="m460.7 224.2c-0.1 0.1-1-0.5-1.9-1.5s-1.4-2-1.3-2.1 0.8 0.8 1.6 1.8c0.9 0.9 1.7 1.7 1.6 1.8z"/>
					<path class="st8" d="m462.1 222.1c-0.1 0.1-0.4-0.3-0.7-0.9-0.3-0.5-0.5-1-0.4-1.1s0.4 0.3 0.7 0.9c0.3 0.5 0.5 1 0.4 1.1z"/>
					<path class="st6" d="m458.5 306.5c0.1 0.1-1.9 2.3-4.9 4.5-2.9 2.2-5.6 3.6-5.7 3.4s2.3-1.8 5.3-4c2.9-2.2 5.2-4.1 5.3-3.9z"/>
					<path class="st6" d="m458.5 310.4c0.1 0.2-1.6 1.5-3.7 3-2.2 1.5-4 2.5-4.1 2.4-0.1-0.2 1.6-1.5 3.7-3 2.2-1.5 4-2.6 4.1-2.4z"/>
					<path class="st6" d="m457.6 302.8c0.1 0.2-2.4 2.3-5.5 4.7-3.2 2.5-5.9 4.3-6 4.2-0.1-0.2 2.4-2.3 5.5-4.7 3.2-2.5 5.9-4.4 6-4.2z"/>
					<path class="st6" d="m457 298.8c0.1 0.2-3.8 2.4-8.4 5.5s-8.2 5.8-8.3 5.6c-0.1-0.1 0.8-0.9 2.2-2 1.4-1.2 3.4-2.7 5.7-4.2s4.5-2.8 6.1-3.7 2.6-1.3 2.7-1.2z"/>
					<path class="st6" d="m454.2 295.6c0.1 0.2-3.4 2.7-7.9 5.6s-8.2 5.2-8.3 5 3.4-2.7 7.9-5.6 8.2-5.2 8.3-5z"/>
					<path class="st6" d="m451.6 293.4c0.1 0.2-3.4 2.1-7.3 4.9-4 2.8-6.9 5.4-7.1 5.2-0.1-0.1 2.6-3 6.7-5.8 4-2.8 7.7-4.5 7.7-4.3z"/>
					<path class="st6" d="m447.7 290.7c0.1 0.2-3.3 2.2-7.1 5.2s-6.6 5.9-6.7 5.7c-0.1-0.1 2.4-3.2 6.3-6.3 3.8-3 7.4-4.8 7.5-4.6z"/>
					<path class="st6" d="m454.6 328c-0.1 0.1-1.9-1.3-3.9-3.1-2-1.9-3.6-3.5-3.4-3.7 0.1-0.1 1.9 1.3 3.9 3.1 2 2 3.5 3.6 3.4 3.7z"/>
					<path class="st6" d="m458.5 325.6c-0.1 0.1-1.9-1.4-4-3.5-2-2.1-3.6-3.8-3.5-4 0.1-0.1 1.9 1.4 4 3.5s3.6 3.9 3.5 4z"/>
					<path class="st6" d="m461.7 322.6c-0.1 0.1-1.7-1.2-3.4-2.9-1.8-1.8-3.1-3.3-2.9-3.4 0.1-0.1 1.7 1.2 3.4 2.9s3 3.2 2.9 3.4z"/>
					<path class="st6" d="m466.6 319.8c-0.1 0.2-1.9-1.1-4-2.9-2.1-1.7-3.6-3.3-3.5-3.4 0.1-0.2 1.9 1.1 4 2.9 2 1.8 3.6 3.3 3.5 3.4z"/>
					<path class="st6" d="m469.4 315.4c-0.1 0.2-1.8-1-3.9-2.5-2.1-1.4-3.8-2.6-3.7-2.8s2 0.7 4.1 2.2c2.2 1.5 3.7 2.9 3.5 3.1z"/>
					<path class="st6" d="m471.8 312s0.1 0 0.2 0.1 0.2 0.4-0.1 0.6h-0.1l-0.1-0.1c-0.8-0.4-2.3-1.5-4.1-2.8-2.5-1.8-4.4-3.4-4.2-3.6 0.1-0.2 2.2 1.2 4.7 3 1.7 1.3 3.2 2.5 3.9 3.1h-0.2c0.1 0 0.1-0.1 0.1-0.2l-0.1-0.1z"/>
					<path class="st6" d="m474.7 310.3c-0.1 0.2-2-1.1-4.1-2.8-2.2-1.7-3.8-3.2-3.7-3.3s2 1.1 4.1 2.8 3.8 3.2 3.7 3.3z"/>
					<path class="st6" d="m462.1 304.2c-0.2 0-0.2-1.3-0.5-2.8s-0.7-2.7-0.5-2.8 0.9 1 1.2 2.6c0.3 1.7 0 3.1-0.2 3z"/>
					<path class="st6" d="m444.5 320.2c-0.2-0.1 0.1-1.2 0.3-2.7s0.1-2.7 0.3-2.7 0.6 1.2 0.4 2.8c-0.2 1.5-0.8 2.7-1 2.6z"/>
					<path class="st6" d="m441.2 319.1c-0.2 0 0-1.4 0.3-3.1 0.4-1.7 0.9-3 1.1-3s0 1.4-0.3 3.1c-0.4 1.7-0.9 3-1.1 3z"/>
					<path class="st6" d="m497.3 322.7c0 0.2-10.9 2.6-24.5 5.4s-24.6 4.9-24.6 4.7 10.9-2.6 24.5-5.4c13.5-2.9 24.5-4.9 24.6-4.7z"/>
					<path class="st6" d="m495.5 319s-0.5 0.2-1.5 0.4c-1.1 0.2-2.5 0.5-4.1 0.9-3.4 0.7-8.2 1.7-13.4 3-5.2 1.2-9.9 2.5-13.3 3.4-1.6 0.4-2.9 0.8-4 1.1-0.9 0.2-1.5 0.4-1.5 0.3 0 0 0.5-0.3 1.4-0.6s2.3-0.8 3.9-1.3c3.3-1 8-2.4 13.2-3.6s10-2.2 13.4-2.8c1.7-0.3 3.1-0.5 4.1-0.6 1.2-0.2 1.8-0.3 1.8-0.2z"/>
					<path class="st6" d="m500.5 313.7s-0.5 0.2-1.3 0.5c-0.9 0.3-2.1 0.6-3.7 1-3.2 0.8-7.5 1.7-12.4 2.6s-9.3 1.5-12.6 1.9c-1.6 0.2-2.9 0.3-3.8 0.4s-1.4 0.1-1.4 0 0.5-0.2 1.4-0.3c1.1-0.2 2.3-0.4 3.8-0.6 3.2-0.5 7.6-1.2 12.5-2.1s9.3-1.8 12.5-2.4c1.5-0.3 2.7-0.5 3.8-0.8 0.7-0.1 1.2-0.2 1.2-0.2z"/>
					<path class="st6" d="m500.7 309.5c0 0.1-1.6 0.6-4.3 1.2-2.7 0.7-6.5 1.5-10.6 2.3-4.2 0.8-8 1.5-10.7 1.9-2.8 0.4-4.5 0.6-4.5 0.5s1.7-0.5 4.4-1c2.9-0.6 6.6-1.3 10.7-2.1s7.7-1.5 10.7-2.1c2.6-0.5 4.3-0.8 4.3-0.7z"/>
					<path class="st6" d="m499.5 304.5c0 0.1-1.3 0.4-3.5 0.9-2.4 0.5-5.3 1.1-8.4 1.7-3.2 0.6-6 1.2-8.4 1.7-2.2 0.4-3.5 0.7-3.5 0.6s1.3-0.5 3.4-1.1 5.1-1.3 8.4-1.9c3.3-0.7 6.3-1.2 8.5-1.5 2.2-0.4 3.5-0.5 3.5-0.4z"/>
					<path class="st6" d="m483.8 304.8c-0.1 0.2-1-0.3-1.6-1.4-0.6-1-0.5-2.1-0.3-2.1s0.5 0.8 1 1.7c0.4 1 1 1.6 0.9 1.8z"/>
					<path class="st6" d="m488.4 303.6c-0.2 0.1-0.8-0.7-1.3-1.8s-0.8-2-0.6-2.1 0.8 0.7 1.3 1.8c0.5 1 0.7 2 0.6 2.1z"/>
					<path class="st6" d="m490.8 302.8c-0.2 0-0.5-1.5-0.7-3.5-0.2-1.9-0.2-3.5 0-3.5s0.5 1.5 0.7 3.5c0.2 1.9 0.2 3.5 0 3.5z"/>
					<path class="st6" d="m494 302.8c-0.2 0-0.6-2-1-4.4-0.3-2.5-0.5-4.5-0.3-4.5s0.6 2 1 4.4c0.3 2.5 0.5 4.5 0.3 4.5z"/>
					<path class="st6" d="m496.1 303c-0.2 0-0.3-2.5-0.3-5.6s0.3-5.5 0.5-5.5 0.3 2.5 0.3 5.6c-0.1 3-0.3 5.5-0.5 5.5z"/>
					<path class="st6" d="m499.6 303c-0.2 0 0.3-2.7 0.5-5.9s0.2-5.9 0.4-5.9 0.6 2.7 0.4 6c-0.4 3.3-1.2 5.8-1.3 5.8z"/>
					<path class="st6" d="m502.8 303.4c-0.2 0 0.2-2.5 0.8-5.6s1-5.5 1.3-5.5c0.2 0 0 2.6-0.5 5.6-0.6 3.1-1.4 5.5-1.6 5.5z"/>
					<path class="st6" d="m455.3 344.3c-0.2 0.1-1.4-1.8-2.2-4.5s-0.8-5-0.7-5c0.2 0 0.6 2.2 1.4 4.8s1.7 4.6 1.5 4.7z"/>
					<path class="st6" d="m458.8 343.9c-0.2 0.1-1.1-2.1-2-4.8s-1.5-5-1.4-5c0.2-0.1 1.1 2.1 2 4.8 1 2.7 1.6 5 1.4 5z"/>
					<path class="st6" d="m461.9 344.7c-0.2 0-0.6-2.7-1.2-5.9-0.7-3.3-1.4-5.9-1.2-5.9 0.2-0.1 1.2 2.5 1.9 5.8 0.7 3.2 0.7 6 0.5 6z"/>
					<path class="st6" d="m465.2 342.5c-0.2 0-0.5-2.2-0.9-5s-0.9-5-0.7-5c0.2-0.1 1 2.1 1.4 4.9s0.4 5.1 0.2 5.1z"/>
					<path class="st6" d="m469.2 342.3c-0.2 0-0.8-2.4-1.3-5.4s-0.7-5.5-0.5-5.5 0.8 2.4 1.3 5.4c0.4 3 0.7 5.5 0.5 5.5z"/>
					<path class="st6" d="m473.6 338.9c-0.2 0.1-1.2-1.7-1.8-4.1-0.4-1.6-0.6-3-0.6-3.8l0.3 0.1c-0.3 0.3-0.5 0.4-0.5 0.4-0.1 0 0-0.3 0.2-0.6l0.2-0.4 0.1 0.5c0.4 1.5 0.6 2.6 0.9 3.6 0.7 2.4 1.4 4.3 1.2 4.3z"/>
					<path class="st6" d="m477.7 339.5c-0.2 0-0.9-2.1-1.4-4.9s-0.6-5.1-0.4-5.1 0.6 2.2 1.1 5c0.5 2.7 0.9 5 0.7 5z"/>
					<path class="st6" d="m480.2 338.9c-0.2 0-0.3-2.3-0.4-5.2s-0.2-5.2 0-5.2 0.6 2.3 0.7 5.2c0.2 2.9-0.1 5.3-0.3 5.2z"/>
					<path class="st6" d="m483.3 340c-0.2 0-0.2-2.7-0.3-5.9s-0.4-5.9-0.2-5.9 0.8 2.6 0.9 5.9c0.2 3.3-0.2 5.9-0.4 5.9z"/>
					<path class="st6" d="m488.3 337.5c-0.2 0-0.7-2-1.1-4.6s-0.5-4.7-0.3-4.7 0.7 2 1.1 4.6 0.5 4.7 0.3 4.7z"/>
					<path class="st6" d="m491.3 336.8c-0.2 0-0.4-2.2-0.8-5-0.3-2.8-0.7-5-0.5-5s0.8 2.1 1.2 4.9 0.3 5.1 0.1 5.1z"/>
					<path class="st6" d="m493.7 337.7c-0.2 0-0.2-2.7-0.1-6s0.4-6 0.6-6 0.2 2.7 0.1 6-0.4 6-0.6 6z"/>
					<path class="st6" d="m497.2 338c-0.2 0-0.4-2.6-0.4-5.8s0.1-5.8 0.3-5.8 0.4 2.6 0.4 5.8c0.1 3.2-0.1 5.8-0.3 5.8z"/>
					<path class="st6" d="m501.8 338.8c-0.2 0 0.1-3 0.4-6.7s0.5-6.7 0.7-6.7 0.4 3 0 6.8c-0.2 3.6-0.9 6.6-1.1 6.6z"/>
					<path class="st6" d="m506.5 322c0 0.2-1.9 0.2-4.1-0.6s-3.7-2-3.6-2.1c0.1-0.2 1.7 0.7 3.8 1.4s3.9 1.1 3.9 1.3z"/>
					<path class="st6" d="m508.3 318.5c0 0.2-1.9 0.2-4.2-0.3s-3.9-1.4-3.9-1.6c0.1-0.2 1.8 0.4 4 0.9 2.3 0.5 4.1 0.8 4.1 1z"/>
					<path class="st6" d="m509.4 313.1c0 0.2-1.8 0.6-4 0.6-2.3 0-4.1-0.4-4-0.6 0-0.2 1.8-0.2 4-0.2s4 0 4 0.2z"/>
					<path class="st6" d="m511 308.6c0 0.2-1.8 0.6-4.1 0.9s-4.1 0.4-4.2 0.2c0-0.2 1.8-0.6 4.1-0.9s4.2-0.4 4.2-0.2z"/>
					<path class="st6" d="m455.2 355.5c-0.2-0.1 0.8-1.9 1.8-4.2 1.1-2.3 1.8-4.2 2-4.1s-0.3 2.1-1.4 4.4c-0.9 2.3-2.2 4-2.4 3.9z"/>
					<path class="st6" d="m462.9 354.1c0.1 0 0.1 0.2 0.2 0.5l0.1 0.3-0.3-0.1c-0.8-0.3-2.4-1-4.3-1.9-2.6-1.3-4.6-2.5-4.5-2.7s2.3 0.7 4.9 2c1.9 0.9 3.4 1.8 4.1 2.3l-0.2 0.2c-0.1-0.4 0-0.5 0-0.6z"/>
					<path class="st6" d="m462.3 354.2s0.2 0 0.4 0.2h-0.2c0.2-0.7 0.9-2.1 1.7-3.8 1.1-2.3 1.9-4.2 2.1-4.1s-0.4 2.1-1.5 4.4c-0.8 1.7-1.6 3.1-2.1 3.7l-0.1 0.2-0.1-0.2c-0.2-0.3-0.2-0.4-0.2-0.4z"/>
					<path class="st6" d="m470.8 353.3c0 0.2-2.6-0.2-5.4-1.6-2.8-1.3-4.7-3.1-4.6-3.2 0.1-0.2 2.2 1.2 4.9 2.5 2.8 1.4 5.2 2.1 5.1 2.3z"/>
					<path class="st6" d="m470.3 352.8c-0.2-0.1 1-1.7 2-3.8 1.1-2.1 1.7-3.9 1.9-3.9s-0.1 2-1.3 4.2c-1 2.2-2.4 3.6-2.6 3.5z"/>
					<path class="st6" d="m477.2 351c0 0.2-2.4-0.3-5-1.5s-4.4-2.7-4.3-2.9 2.1 1 4.6 2.2c2.6 1.2 4.8 2 4.7 2.2z"/>
					<path class="st6" d="m479.4 351.7c-0.1 0-0.1-0.6 0.1-1.5s0.9-2 1.6-3.2c0.8-1.1 1.4-2.1 1.8-2.9s0.6-1.3 0.7-1.3 0.1 0.6-0.2 1.5-0.9 2-1.7 3.1-1.4 2.2-1.7 2.9c-0.3 0.9-0.4 1.4-0.6 1.4z"/>
					<path class="st6" d="m486.9 349.5c-0.1 0.2-2.4-0.9-5-2.4-2.7-1.5-4.8-2.8-4.7-3s2.4 0.9 5 2.4c2.7 1.5 4.8 2.8 4.7 3z"/>
					<path class="st6" d="m486.8 349.5c-0.2-0.1 0.7-1.8 2-3.8s2.5-3.5 2.6-3.4c0.2 0.1-0.7 1.8-2 3.8-1.2 2-2.4 3.5-2.6 3.4z"/>
					<path class="st6" d="m495.5 349.2s0.1 0 0.2 0.1l0.4 0.4-0.6-0.3c-0.6-0.3-2.6-1.9-5.1-3.5-3-2-5.5-3.3-5.4-3.5s2.8 0.9 5.8 2.9c2.5 1.7 4.4 3.4 4.9 4l-0.1 0.1c-0.1-0.1-0.1-0.2-0.1-0.2z"/>
					<path class="st6" d="m495.2 348.9c-0.2-0.1 1.1-2 2.9-4.2 1.7-2.2 3.3-3.9 3.4-3.8 0.2 0.1-1.1 2-2.9 4.2-1.7 2.2-3.2 3.9-3.4 3.8z"/>
					<path class="st6" d="m503.3 348.3c-0.1 0.2-2.5-0.8-5-2.6-2.6-1.8-4.3-3.8-4.1-3.9 0.1-0.2 2 1.5 4.5 3.3s4.7 3 4.6 3.2z"/>
					<path class="st6" d="m482.8 355.3c0 0.1-1.5 0.4-4 0.9-2.5 0.4-6 0.9-9.9 1.3s-7.4 0.5-10 0.5-4.1 0-4.1-0.1 1.6-0.2 4.1-0.4 6.1-0.4 9.9-0.8c3.9-0.4 7.4-0.7 9.9-1 2.5-0.4 4.1-0.5 4.1-0.4z"/>
					<path class="st6" d="m478.9 359.8c0 0.2-5.3 0.8-11.8 1.3s-11.8 0.8-11.9 0.6c0-0.2 5.3-0.8 11.8-1.3s11.8-0.8 11.9-0.6z"/>
					<path class="st6" d="m452.8 375.9c-0.2-0.1 0.5-2.6 1.6-5.7s2.1-5.5 2.3-5.4-0.5 2.6-1.6 5.7c-1.1 3-2.1 5.4-2.3 5.4z"/>
					<path class="st6" d="m457.9 374.6c-0.2-0.1 0.5-2.2 1.3-5 0.7-2.7 1.3-4.9 1.5-4.9s0 2.3-0.8 5.1-1.8 4.9-2 4.8z"/>
					<path class="st6" d="m462.8 374.6c-0.2 0 0.1-2.4 0.7-5.3s1.3-5.2 1.5-5.2-0.1 2.4-0.7 5.3c-0.6 3-1.3 5.3-1.5 5.2z"/>
					<path class="st6" d="m466.5 375.1c-0.2 0 0.2-2.6 0.5-5.7s0.3-5.6 0.5-5.7c0.2 0 0.5 2.6 0.2 5.7-0.3 3.3-1 5.8-1.2 5.7z"/>
					<path class="st6" d="m471 373.4c-0.2-0.1 0.2-2.1 0.4-4.7 0.1-2.6-0.1-4.7 0.1-4.7s0.8 2.1 0.6 4.7c-0.1 2.7-0.9 4.8-1.1 4.7z"/>
					<path class="st6" d="m478.3 372.7c-0.2 0-0.7-1.8-1.2-4.1s-0.7-4.2-0.5-4.3c0.2 0 0.7 1.8 1.2 4.1s0.7 4.2 0.5 4.3z"/>
					<path class="st6" d="m482.8 372.7c-0.2 0-0.3-2.4-0.6-5.3s-0.6-5.3-0.4-5.3 0.8 2.3 1.1 5.2c0.3 3 0.1 5.4-0.1 5.4z"/>
					<path class="st6" d="m490.6 370.5c-0.2 0-0.9-3.7-2-8.2s-2.1-8.2-1.9-8.3 1.6 3.5 2.6 8.1c1.2 4.5 1.5 8.3 1.3 8.4z"/>
					<path class="st6" d="m494.7 369c-0.2 0-1.1-3.5-2-7.9s-1.5-8-1.3-8.1c0.2 0 1.1 3.5 2 7.9s1.5 8.1 1.3 8.1z"/>
					<path class="st6" d="m498 368.5c-0.2 0-0.5-3.3-1.3-7.3s-1.9-7.1-1.7-7.2 1.6 3 2.4 7.1c0.9 4 0.8 7.4 0.6 7.4z"/>
					<path class="st6" d="m458.2 376.8c0.1 0.1-1.7 2.3-4.5 4.3-2.8 2.1-5.4 3.3-5.5 3.1s2.3-1.6 5-3.7c2.8-2 4.8-3.8 5-3.7z"/>
					<path class="st6" d="m460.9 378.9c0.1 0.1-1.9 2.4-5 4.4-3.1 2.1-5.9 3.1-6 3-0.1-0.2 2.6-1.5 5.6-3.6 3-2 5.2-4 5.4-3.8z"/>
					<path class="st6" d="m467 387.1c-0.1 0.2-1.8-0.5-3.7-1.9s-3.1-2.8-3-2.9 1.6 1 3.4 2.3 3.4 2.3 3.3 2.5z"/>
					<path class="st6" d="m468.9 384.5c-0.1 0.2-1.5-0.6-3.1-1.7s-2.8-2.1-2.6-2.3c0.1-0.2 1.5 0.6 3.1 1.7 1.5 1.1 2.7 2.1 2.6 2.3z"/>
					<path class="st6" d="m471.8 382.5c-0.2 0.1-1.5-1.3-3.5-2.7s-3.9-2.2-3.8-2.4c0-0.2 2.1 0.3 4.2 1.8 2.1 1.4 3.2 3.2 3.1 3.3z"/>
					<path class="st6" d="m472.9 380c-0.2-0.1 0.5-1.4 1.5-2.8s1.9-2.5 2.1-2.4-0.5 1.4-1.5 2.8c-1 1.5-1.9 2.5-2.1 2.4z"/>
					<path class="st6" d="m475.9 382.8c-0.2-0.1 1-2 2.7-4.3 1.6-2.3 3.1-4 3.3-3.9s-1 2-2.7 4.3c-1.6 2.3-3.1 4-3.3 3.9z"/>
					<path class="st6" d="m479.4 385c-0.2-0.1 1.2-2.8 3-6s3.4-5.7 3.6-5.6-1.2 2.8-3 6-3.5 5.7-3.6 5.6z"/>
					<path class="st6" d="m483.4 383.5c-0.2-0.1 1.6-2.3 3.5-5.2s3-5.4 3.2-5.4c0.2 0.1-0.7 2.8-2.6 5.7-1.9 3.1-4 5.1-4.1 4.9z"/>
					<path class="st6" d="m496.9 380.8c-0.1 0.2-1.4-0.8-3-2s-2.9-2.1-2.9-2.2c0.1-0.2 1.6 0.5 3.3 1.7 1.6 1.1 2.7 2.3 2.6 2.5z"/>
					<path class="st6" d="m499.8 377.2c-0.1 0.2-1.6-0.7-3.5-1.5s-3.5-1.3-3.5-1.5 1.8 0 3.8 0.8c2 0.9 3.3 2 3.2 2.2z"/>
					<path class="st6" d="m503.4 375.7c-0.1 0.2-1.9-0.4-4.1-1.4-2.2-0.9-3.9-1.8-3.9-2 0.1-0.2 1.9 0.4 4.1 1.4 2.2 0.9 4 1.8 3.9 2z"/>
					<path class="st6" d="m507.6 373.4c-0.1 0.2-1.9-0.2-4-1.3s-3.5-2.4-3.4-2.5c0.1-0.2 1.7 0.8 3.7 1.9 2 1 3.8 1.7 3.7 1.9z"/>
					<path class="st6" d="m446.3 393.8c-0.2 0-0.5-0.9-0.7-2.2-0.2-1.2-0.2-2.2 0-2.3 0.2 0 0.5 0.9 0.7 2.2s0.2 2.3 0 2.3z"/>
					<path class="st6" d="m450.3 394.3c-0.2 0-0.5-1.2-0.6-2.7s0-2.7 0.2-2.8c0.2 0 0.5 1.2 0.6 2.7s0 2.7-0.2 2.8z"/>
					<path class="st6" d="m454.5 394.9c-0.2 0-0.3-1.4-0.5-3.1s-0.6-3-0.4-3.1 0.8 1.2 1.1 3 0 3.2-0.2 3.2z"/>
					<path class="st6" d="m457.9 394.3c-0.2 0-0.4-1.2-0.4-2.6 0-1.5 0.2-2.6 0.4-2.6s0.4 1.2 0.4 2.6-0.2 2.6-0.4 2.6z"/>
					<path class="st6" d="m460.2 394c-0.2 0-0.1-1.1-0.2-2.4s-0.3-2.4-0.1-2.4c0.2-0.1 0.7 1 0.8 2.4 0.2 1.4-0.3 2.5-0.5 2.4z"/>
					<path class="st6" d="m465.3 395.5c-0.2 0-0.7-1.2-1.1-2.9-0.4-1.6-0.6-3-0.4-3s0.7 1.2 1.1 2.9c0.4 1.6 0.6 3 0.4 3z"/>
					<path class="st6" d="m468.7 394.5c-0.2 0-0.5-1.2-0.7-2.7s-0.2-2.8 0-2.8 0.5 1.2 0.7 2.7 0.2 2.7 0 2.8z"/>
					<path class="st6" d="m472.5 393.6c-0.2 0.1-0.8-1.1-1.4-2.7s-0.9-2.9-0.7-3 0.8 1.1 1.4 2.7 0.9 2.9 0.7 3z"/>
					<path class="st6" d="m476 394.5c-0.2 0-0.5-1.8-1-4.1s-0.9-4.1-0.8-4.2c0.2-0.1 1 1.7 1.5 4s0.5 4.3 0.3 4.3z"/>
					<path class="st6" d="m479 393.8c-0.2 0-0.2-1.6-0.5-3.5-0.2-1.9-0.6-3.4-0.5-3.5 0.2-0.1 0.9 1.4 1.2 3.4 0.4 2.1 0 3.7-0.2 3.6z"/>
					<path class="st6" d="m484.4 393c-0.2 0.1-0.9-1.2-1.3-2.9s-0.4-3.2-0.2-3.2 0.5 1.4 0.9 3c0.4 1.7 0.8 3 0.6 3.1z"/>
					<path class="st6" d="m487.4 391.9c-0.2 0-0.5-1.3-0.8-3-0.2-1.7-0.3-3.1-0.1-3.1s0.5 1.3 0.8 3 0.3 3.1 0.1 3.1z"/>
					<path class="st6" d="m492 391.3c-0.2 0-0.6-1.6-1.2-3.6s-1.1-3.6-0.9-3.7 1 1.5 1.6 3.5 0.7 3.8 0.5 3.8z"/>
					<path class="st6" d="m495.5 390.9c-0.2 0-0.5-1.7-0.9-3.8s-0.7-3.9-0.5-3.9c0.2-0.1 0.8 1.6 1.2 3.8 0.4 2.1 0.4 3.9 0.2 3.9z"/>
					<path class="st6" d="m500 389.8c-0.2 0-0.7-1.3-1.1-3s-0.6-3.1-0.4-3.1 0.7 1.3 1.1 3 0.6 3.1 0.4 3.1z"/>
					<path class="st6" d="m503.4 388.6c-0.2 0-0.7-1.5-1.3-3.4s-1.2-3.4-1-3.5 1.1 1.3 1.7 3.3c0.7 1.9 0.8 3.5 0.6 3.6z"/>
					<path class="st6" d="m505.7 386c-0.2 0.1-0.8-1.3-1.3-3.1-0.5-1.7-0.8-3.2-0.6-3.3s0.8 1.3 1.3 3.1 0.8 3.3 0.6 3.3z"/>
					<path class="st6" d="m509.1 384.8c-0.2 0-0.6-1.7-1.3-3.9-0.6-2.1-1.2-3.8-1.1-3.9 0.2-0.1 1.1 1.5 1.7 3.7 0.8 2.2 0.9 4.1 0.7 4.1z"/>
					<path class="st6" d="m474.8 397c0.1 0.2-2.7 1.2-6.3 2s-6.5 0.9-6.6 0.7c0-0.2 2.9-0.7 6.4-1.4 3.6-0.7 6.4-1.5 6.5-1.3z"/>
					<path class="st6" d="m478.5 399.9c0 0.2-2.9 1-6.5 1.9-3.7 0.8-6.7 1.3-6.7 1.2 0-0.2 2.9-1 6.5-1.9 3.7-0.8 6.7-1.4 6.7-1.2z"/>
					<path class="st6" d="m472.6 406.7c-0.2-0.1-0.1-0.7-0.2-1.4 0-0.7 0-1.3 0.2-1.4s0.6 0.5 0.6 1.4-0.4 1.5-0.6 1.4z"/>
					<path class="st6" d="m476.4 407.1c0.1 0 0.1 0.2 0 0.4l-0.3-0.2c0.1-0.4 0.5-1.3 0.8-2.2 0.5-1.4 0.8-2.6 1-2.6s0.3 1.3-0.3 2.8c-0.4 1-0.9 1.8-1.2 2.2l-0.3-0.2c0.1-0.2 0.2-0.3 0.3-0.2z"/>
					<path class="st6" d="m479 408.4c-0.2-0.1 0.2-1.3 0.4-2.9 0.3-1.5 0.4-2.8 0.6-2.8s0.4 1.3 0.1 3c-0.3 1.6-1 2.7-1.1 2.7z"/>
					<path class="st6" d="m487 403.3c-0.1 0.2-2.2-1-4.3-2.9-2.2-1.9-3.6-3.8-3.4-3.9s1.8 1.5 3.9 3.3c2 2 3.9 3.3 3.8 3.5z"/>
					<path class="st6" d="m490.7 401.5c-0.1 0.2-2.1-0.8-4.6-2.1s-4.5-2.3-4.4-2.5 2.2 0.6 4.7 1.9c2.5 1.2 4.4 2.5 4.3 2.7z"/>
					<path class="st6" d="m493.4 399.8c-0.1 0.2-1.9-0.7-4.1-2.1-2.1-1.3-3.8-2.5-3.7-2.7s1.9 0.7 4.1 2.1c2.2 1.3 3.8 2.5 3.7 2.7z"/>
					<path class="st6" d="m497.3 398.7c-0.1 0.2-1.8-0.7-3.8-1.9s-3.5-2.4-3.4-2.5c0.1-0.2 1.8 0.7 3.8 1.9s3.5 2.3 3.4 2.5z"/>
					<path class="st6" d="m497 395.9c-0.2 0 0-1.5 0.9-3.1s2.2-2.5 2.3-2.3-0.8 1.2-1.7 2.7c-0.8 1.4-1.3 2.8-1.5 2.7z"/>
					<path class="st6" d="m500.7 396.1c0.1 0.1-0.1 0.5-0.5 1.1l-0.4-0.3c0.4-0.8 1.1-1.9 1.9-3.1 1.5-2.2 2.8-3.9 3-3.8s-0.9 2-2.4 4.2c-0.8 1.2-1.6 2.3-2.1 3l-0.4-0.3c0.5-0.5 0.8-0.8 0.9-0.8z"/>
					<path class="st6" d="m504 396.6s0.1 0.1 0.1 0.3-0.2 0.6-0.8 0.6h-0.3l0.1-0.3c0.4-1 1.2-2.6 2.1-4.4 1.6-2.9 3-5.2 3.1-5.1 0.2 0.1-0.9 2.5-2.5 5.5-0.9 1.8-1.8 3.3-2.4 4.2l-0.2-0.3c0.2 0.1 0.4-0.1 0.5-0.3 0.3-0.1 0.3-0.2 0.3-0.2z"/>
					<path class="st6" d="m506.1 397.8c-0.2-0.1 0.9-2.4 2.4-5.2s2.9-5 3.1-4.9-0.9 2.4-2.4 5.2c-1.5 2.9-2.9 5-3.1 4.9z"/>
					<path class="st6" d="m483 411.1c-0.2-0.1 0.6-1.5 1.7-3 1.1-1.6 2.1-2.7 2.3-2.6s-0.6 1.5-1.7 3c-1.1 1.6-2.1 2.7-2.3 2.6z"/>
					<path class="st6" d="m486.8 412.1c-0.2-0.1 1-2 2.2-4.4 1.3-2.4 2.2-4.3 2.4-4.3 0.2 0.1-0.5 2.2-1.8 4.6-1.3 2.5-2.7 4.3-2.8 4.1z"/>
					<path class="st6" d="m490 412c-0.2-0.1 0.9-2.3 2.3-4.9 1.5-2.6 2.8-4.7 3-4.6s-0.9 2.3-2.3 4.9c-1.5 2.6-2.9 4.7-3 4.6z"/>
					<path class="st6" d="m493.3 412.4c-0.2-0.1 0.9-2.3 2.1-5.1s2.1-5.1 2.3-5-0.4 2.5-1.7 5.3c-1.2 2.8-2.6 4.9-2.7 4.8z"/>
					<path class="st6" d="m505.2 409.3c-0.1 0.2-1.8-0.7-3.7-2.1s-3.1-2.9-3-3 1.6 1 3.4 2.4c1.9 1.4 3.5 2.5 3.3 2.7z"/>
					<path class="st6" d="m508.4 406.1c-0.1 0.2-1.9-0.7-4-2s-3.7-2.5-3.6-2.7 1.9 0.7 4 2c2.1 1.4 3.7 2.6 3.6 2.7z"/>
					<path class="st6" d="m511.7 403.7c-0.1 0.2-2-0.6-4.3-1.7s-4.1-2.2-4-2.4 2 0.6 4.3 1.7 4.1 2.2 4 2.4z"/>
					<path class="st6" d="m514.9 401.6c-0.1 0.2-1.8-0.3-3.7-1.5-1.9-1.1-3.1-2.4-3-2.6s1.5 0.9 3.4 2c1.8 1.1 3.4 1.9 3.3 2.1z"/>
					<path class="st6" d="m516.6 397.5c0 0.2-1.4 0.2-3.1-0.1s-3-0.6-3-0.8 1.4-0.2 3.1 0.1c1.7 0.2 3.1 0.6 3 0.8z"/>
					<path class="st6" d="m500 407.9c0.2 0.1-0.3 1.1-1 2.2s-1.4 1.9-1.6 1.8 0.3-1.1 1-2.2c0.8-1.1 1.5-1.9 1.6-1.8z"/>
					<path class="st6" d="m443.1 352c-0.2-0.1 0.7-2.3 1.8-5.1s1.9-5 2.1-5c0.2 0.1-0.4 2.4-1.5 5.2-1 2.9-2.2 5-2.4 4.9z"/>
					<path class="st6" d="m440.2 349.8c-0.2-0.1 1.2-3 2.7-6.8 1.4-3.8 2.3-6.9 2.5-6.9s-0.4 3.3-1.8 7.1-3.2 6.6-3.4 6.6z"/>
					<path class="st6" d="m437.4 346.4s0.3 0.1 0.7 0.4l-0.3 0.1c0.3-1.1 1-3.3 1.9-5.8 1.3-3.6 2.5-6.4 2.7-6.3s-0.7 3-2 6.6c-0.9 2.5-1.8 4.7-2.3 5.7l-0.1 0.2-0.1-0.2c-0.4-0.4-0.6-0.6-0.5-0.7z"/>
					<path class="st6" d="m434.1 345.9c-0.2-0.1 1.1-2.5 2.3-5.6 1.3-3.1 2.1-5.6 2.3-5.6s-0.3 2.7-1.6 5.9c-1.3 3.1-2.8 5.4-3 5.3z"/>
					<path class="st6" d="m431.5 342.8c0.1 0 0.2 0.3 0.3 0.8h-0.3c0.3-1.1 0.9-3.2 1.8-5.5 1.2-3.4 2.4-6.2 2.6-6.1s-0.7 2.9-1.9 6.3c-0.9 2.4-1.7 4.4-2.2 5.4l-0.3 0.6v-0.6-0.9z"/>
					<path class="st6" d="m429 340.1c-0.2-0.1 1-2.4 2.4-5.2s2.5-5.1 2.6-5c0.2 0.1-0.6 2.5-2 5.3-1.3 2.9-2.8 5-3 4.9z"/>
					<path class="st6" d="m426.1 338.6c-0.2-0.1 0.7-2.6 2-5.6s2.5-5.4 2.7-5.3-0.7 2.6-2 5.6c-1.3 3.1-2.5 5.4-2.7 5.3z"/>
					<path class="st6" d="m424 336.9c-0.2-0.1 0.7-2.6 2-5.7s2.5-5.5 2.7-5.4-0.7 2.6-2 5.7-2.5 5.5-2.7 5.4z"/>
					<path class="st6" d="m420.2 335.8c-0.2-0.1 0.5-2.9 1.9-6.2s2.9-5.8 3.1-5.7-1 2.7-2.4 6-2.4 6-2.6 5.9z"/>
					<path class="st6" d="m433.5 325.5c-0.1 0.2-2.2-1-4.1-3.3s-2.5-4.6-2.4-4.7c0.2-0.1 1.2 2 2.9 4.2 1.9 2.2 3.8 3.6 3.6 3.8z"/>
					<path class="st6" d="m433.8 320.9c-0.1 0.1-1.6-1.2-3.3-2.9-1.7-1.8-3-3.3-2.8-3.4 0.1-0.1 1.6 1.2 3.3 2.9 1.6 1.7 2.9 3.2 2.8 3.4z"/>
					<path class="st6" d="m435.2 316.4c0.1 0 0.1 0.3 0.2 0.7l0.1 0.6-0.4-0.5c-1.1-1.2-1.9-2-2.7-2.9-1.8-1.9-3.4-3.3-3.2-3.5 0.1-0.2 1.9 1.1 3.8 3 1.2 1.2 2.1 2.5 2.5 3.2l-0.3 0.1c-0.2-0.5-0.1-0.7 0-0.7z"/>
					<path class="st6" d="m436.9 314.1c-0.1 0.1-1.8-1.2-3.8-3-1.9-1.8-3.4-3.4-3.3-3.6 0.1-0.1 1.8 1.2 3.8 3 2 1.9 3.4 3.5 3.3 3.6z"/>
					<path class="st6" d="m437.4 311.1c-0.2 0.1-1.4-1-2.8-2.6-1.4-1.5-2.4-2.9-2.2-3s1.4 1 2.8 2.6c1.3 1.5 2.3 2.9 2.2 3z"/>
					<path class="st6" d="m443.5 323.6c0.1 0.2-1.7 1.1-4 2s-4.2 1.5-4.3 1.3 1.7-1.1 4-2 4.2-1.5 4.3-1.3z"/>
					<path class="st6" d="m446 325.8c0.1 0.2-1.8 1.2-4.3 2.3s-4.5 1.8-4.6 1.6 1.8-1.2 4.3-2.3c2.5-1 4.5-1.8 4.6-1.6z"/>
					<path class="st6" d="m447.4 328c0.2 0.1-0.6 1.6-2.4 2.6s-3.5 0.7-3.5 0.5 1.5-0.3 3.1-1.2c1.7-0.8 2.6-2 2.8-1.9z"/>
					<path class="st6" d="m509.1 347.8c-0.1 0.1-1.2-0.7-2.2-2.2-1-1.4-1.3-2.8-1.1-2.8 0.2-0.1 0.8 1.1 1.8 2.4 0.8 1.4 1.6 2.4 1.5 2.6z"/>
					<path class="st6" d="m511.6 344.7c-0.2 0.1-1.3-1.4-2.5-3.3s-2.1-3.6-1.9-3.7 1.3 1.4 2.5 3.3 2.1 3.6 1.9 3.7z"/>
					<path class="st6" d="m515.2 341.7c-0.2 0.1-1.4-2.1-2.8-5-1.4-2.8-2.4-5.2-2.2-5.3s1.4 2.1 2.8 5c1.4 2.8 2.4 5.2 2.2 5.3z"/>
					<path class="st6" d="m518.1 338.7c-0.2 0.1-1.3-1.8-2.5-4.3s-2-4.5-1.8-4.6 1.3 1.8 2.5 4.3c1.2 2.4 2 4.5 1.8 4.6z"/>
					<path class="st6" d="m521.6 336.1c-0.2 0.1-1.3-1.8-2.4-4.3s-1.9-4.5-1.7-4.6 1.3 1.8 2.4 4.3 1.8 4.5 1.7 4.6z"/>
					<path class="st6" d="m524.6 332.8c-0.2 0.1-1.4-1.8-2.7-4.1-1.3-2.4-2.2-4.4-2-4.5s1.4 1.8 2.7 4.1c1.3 2.4 2.2 4.4 2 4.5z"/>
					<path class="st6" d="m507.7 329.4c-0.1-0.2 2.6-2.1 5.7-4.7s5.5-4.9 5.7-4.8c0.1 0.1-2 2.7-5.2 5.3-3.2 2.7-6.1 4.4-6.2 4.2z"/>
					<path class="st6" d="m508.6 325.3c-0.1-0.2 2.3-2.2 5.3-4.5 3.1-2.3 5.7-4 5.8-3.9 0.1 0.2-2.3 2.2-5.3 4.5-3.1 2.3-5.7 4.1-5.8 3.9z"/>
					<path class="st6" d="m508.6 320.9c-0.1 0.1-0.1 0.1 0 0-0.2 0.1 0 0.4-0.1 0.3h-0.1c0.7-0.7 2.1-1.9 3.7-3.5 2.3-2.2 4.1-4 4.2-3.9s-1.4 2.2-3.7 4.4c-1.6 1.5-3.2 2.7-4 3.2h-0.1c-0.1 0-0.2-0.1-0.3-0.2v-0.2c0-0.1 0.1-0.2 0.1-0.3 0.2 0.1 0.3 0.2 0.3 0.2z"/>
					<path class="st6" d="m510.5 313.9c-0.1-0.2 0.7-1.1 1.8-2.1s2.2-1.7 2.3-1.6c0.1 0.2-0.7 1.1-1.8 2.1-1.1 1.1-2.2 1.8-2.3 1.6z"/>
					<path class="st8" d="m453.9 363.1s-0.2-0.3-0.3-0.8c-0.2-0.5-0.5-1.3-0.8-2.3-0.6-1.9-1.4-4.6-2.2-7.6s-1.4-5.7-1.8-7.7c-0.2-1-0.4-1.8-0.5-2.4s-0.1-0.9-0.1-0.9 0.1 0.3 0.3 0.8c0.2 0.7 0.4 1.5 0.6 2.3 0.6 2.2 1.2 4.8 2 7.7 0.8 2.8 1.5 5.4 2.1 7.7 0.2 0.8 0.4 1.6 0.6 2.3 0 0.6 0.1 0.9 0.1 0.9z"/>
					<path class="st8" d="m502.3 357.2c-0.1 0 0.6-6.7 1.5-15 1-8.3 1.8-15 1.9-15s-0.6 6.7-1.5 15-1.8 15-1.9 15z"/>
			<path class="st5" d="m455.8 255c-1.8 1.5-3.9 1.9-5.4 0.1s-1.9-4.4-1.1-6.7c1-3.2 3.9-3.3 6.1-1.6"/>
			<g class="st11">
				<path class="st12" d="m453.6 253c0.5-0.1 1 0.4 1 0.9-0.1 0.5-0.6 0.9-1.1 0.9s-1-0.2-1.4-0.6-0.6-0.8-0.9-1.3c-0.4-0.7-0.9-1.5-0.9-2.4 0-1.1 0.7-2.1 1.7-2.5s2.2-0.1 2.9 0.7c0.2 0.2 0.3 0.5 0.1 0.6-0.2 0.2-0.5 0.1-0.7 0.1-0.8-0.1-1.6 0.5-1.7 1.3-0.2 0.9 0.2 2.3 1 2.3"/>
			</g>
				<path class="st8" d="m450.2 251.1s-0.1-0.2-0.1-0.6 0.1-1.1 0.5-1.7c0.4-0.7 1.2-1.3 2.3-1.3 0.5 0 1.1 0.1 1.6 0.5 0.5 0.3 0.8 0.9 0.9 1.5 0.1 0.5 0.1 0.9-0.1 1.4 0 0.1-0.2 0.2-0.3 0.1-0.1 0-0.1-0.1-0.1-0.2 0-0.8-1.1-1.3-1.7-0.9s-0.9 1.1-0.8 1.7c0.2 1.2 0.9 1.7 0.8 1.7 0 0-0.2-0.1-0.4-0.3-0.2-0.3-0.5-0.7-0.6-1.3s0.1-1.5 0.9-2 2.2-0.1 2.4 1.2l-0.4-0.1c0.1-0.3 0.2-0.7 0.1-1.1-0.2-1-1.2-1.7-2.1-1.6-0.9 0-1.7 0.5-2.1 1.1-0.9 0.9-0.7 1.9-0.8 1.9z"/>
				<path class="st16" d="m451.6 254.8s-0.7 0.1-1.8 0.4-2.8 1-4.4 2.3-3.3 3.4-3.9 6.2c-0.6 2.7-0.3 6 1.6 8.7 1.8 2.7 4.8 4.1 7.6 4.4s5.3-0.8 6.9-2.2 2.5-2.9 2.9-4 0.5-1.8 0.6-1.8c0 0 0 0.7-0.4 1.8s-1.2 2.8-2.9 4.2c-1.6 1.4-4.2 2.6-7.1 2.3-2.9-0.2-6-1.8-7.9-4.5-1.9-2.8-2.3-6.2-1.6-9s2.4-5 4.1-6.3 3.4-2 4.6-2.3c0.6-0.1 1.1-0.2 1.4-0.2h0.3z"/>
		<path class="st3" d="m224.4 504.1l-0.5-122.1 78.7-8.8-6.2 130.9h-35l-1-81.2s-5-8.8-3.9 22.2c0.4 11.6-0.2 59-0.2 59h-31.9z"/>
		<path class="st4" d="m234.2 264.4s-25.1 26.8-25.8 28.2 13.6 26.4 13.6 26.4l11.8-12.5 0.4-42.1z"/>
		<path class="st4" d="m264.8 251.2s-32.8 4.9-34.9 23.5c-0.7 6.4 0.4 24.4-1.1 40.3-2.9 30.3-8.6 63-8.6 63s10.1 25.9 36.9 19 32.4-18.6 32.4-18.6 9.3 15 13.8 15l4.5-74.2 3.7-26.7c0.5-7.7-3.1-22.4-8.2-28.3-3.4-4-8-7.3-14.2-7.6-15.9-0.7-24.3-5.4-24.3-5.4z"/>
		<path class="st17" d="m247.7 211.8c-3.5-6-7.2-12.4-6.5-19.3 0.7-7.3 6.6-17.7 13.4-20.5 6.7-2.8 14.4-2.7 21.6-1.3 3.7 0.7 7.3 1.8 10.6 3.5 3.3 1.8 5.9 8.7 7.6 12 2.3 4.3 2.4 9.6 1.1 14.3s-4 9-7.1 12.8"/>
		<path class="st18" d="m154.1 363.7s-14.5 29.3-7.6 65.3c6.8 36 17.3 75.1 17.3 75.1h44.4s-13.4-75.9-10.3-70.2c3.1 5.8 13.3 70.2 13.3 70.2h40.2c-7.2-46.3-16.5-86.1-28.7-116.3l-68.6-24.1z"/>
		<path class="st19" d="m139.9 301.5s11.3 31.6 17.5 29.3c7.4-2.7 56.1-30.7 56.1-30.7l9.2 15.1s-70.1 53.7-80.4 46-25.1-43.9-25.1-43.9l22.7-15.8z"/>
		<path class="st0" d="m123.3 276.3s11.1 1.3 21.3 32.1l5.7 12.4-24.9 21.7-15.9-21.7 13.8-44.5z"/>
		<path class="st20" d="m208.5 297.7c2.8-1.5 6.3-1.6 9.1-0.1 3.2 1.7 5.1 4.9 6.4 8.3 0.4 1 0.7 2.3 0 3.1s-2 0.6-2.9 0c-1.8-1.2-2.4-3.6-3.6-5.4-2-3.1-5.8-4.5-9.3-5.7"/>
		<path class="st19" d="m204.7 293.8c2.8-1.5 6.3-1.6 9.1-0.1 3.2 1.7 5.1 4.9 6.4 8.3 0.4 1 0.7 2.3 0 3.1s-2 0.6-2.9 0c-1.8-1.2-2.4-3.6-3.6-5.4-2-3.1-5.8-4.5-9.3-5.7"/>
			<path class="st21" d="m186.2 231c8.1-4.3 16.9 2.8 19.8 10.1 1.3 3.3 1.6 6.8 2.8 10.2 1 2.9 2.5 5.6 3.1 8.6s-0.1 6.6-2.7 8.2c-1.6 1-3.8 1.3-4.7 3-1 2 0.6 4.2 1.6 6.2 1.8 3.8 0.9 8.8-2.1 11.7-3.1 2.9-8 3.6-11.8 1.5-3.7-2-5.9-6.6-5.1-10.7"/>
				<path class="st12" d="m229.5 420.7s-2.1 9.4-1.4 12.9c0.8 3.5 1.8 10 2.4 9.6s2.6-1.3 2.6-4.1 0.9-5.6 1.7-5.4c0.9 0.2 5 3.9 6.2 5.3 1.3 1.4 11.5 7.7 11.8 7.5s1.6-1.5-1-4-7-6.4-7-6.4l11.4 6.9s1.7-2.1 0.4-3.2l-9.7-6.4 10.2 5.8s1.1-1.3-1-2.9c-2.1-1.7-7.9-5-7.9-5l7.7 3.7s1.2-1.1-1.9-3-12.3-11.2-12.3-11.2l-12.2-0.1z"/>
				<polygon class="st12" points="208.3 345.1 228.4 426.1 242.3 421.6 228.5 331.7"/>
				<path class="st12" d="m116.9 400.9s-0.3 9.6-2 12.8c-1.6 3.2-4.3 9.3-4.7 8.7-0.5-0.6-2.2-1.9-1.5-4.7 0.7-2.7 0.6-5.6-0.3-5.6s-5.8 2.5-7.4 3.5-13.1 4.5-13.3 4.2-1.2-1.9 1.9-3.6 8.4-4.4 8.4-4.4l-12.7 3.7s-1.1-2.4 0.4-3.2l11-3.8-11.4 3s-0.8-1.5 1.7-2.6c2.4-1.1 8.9-2.8 8.9-2.8l-8.4 1.6s-0.9-1.3 2.6-2.4 14.7-7.7 14.7-7.7l12.1 3.3z"/>
				<polygon class="st12" points="156.7 333.2 116.5 406.4 104.2 398.5 140.6 315.1"/>
			<path class="st21" d="m187.6 233.5c-2.9-14.1-21.8-14.6-29.4-9.9-11.3 6.9-10.1 17.6-9.8 26.6 0.1 3.7 1.1 7.6-0.6 10.8-1.4 2.6-4.1 4.1-6.3 6-2.3 1.9-4.3 4.8-3.4 7.6 1.2 4 7.4 5 8.1 9.2 0.3 1.6-0.4 3.3-0.2 4.9 0.5 3.5 4.8 4.9 8.4 4.8 7.3-0.2 14.4-3.7 19-9.4"/>
			<path class="st6" d="m173.9 290.7s-27.9 0.9-30.7 14.3 13.4 54.6 13.4 54.6 1.2 3.9 0.6 4.3c-11.9 7.9-11.1 39.1-10.8 45.5 0 0 10.1-5.4 20.5 0s22.9 16.8 41 12.3 21.1-19 21.1-19c-2.3-18.2-9.1-30.5-18.2-39.5 0 0 8.6-40.3 7.9-50.9-0.6-10.6-7.8-16.8-19.9-19.4-12.1-2.7-24.9-2.2-24.9-2.2z"/>
			<path class="st12" d="m170.1 275.1v12.6s-12 5.1-13.9 7.7l25 18 21.6-19.1s-4.1-2.5-12.2-6.7v-12.4h-20.5z"/>
			<path class="st22" d="m170.1 281.3s12.7-0.9 20.5-1.6v5s-11.2 9.1-20.5-0.9v-2.5z"/>
				<path class="st12" d="m173.6 233.9c-8.7 2.3-14.5 10.5-13.9 19.5 0.9 13.1 4.7 31.6 19.9 30.4 18.4-1.5 20.4-20.1 19.9-32.5-0.5-10.4-9-18.7-19.5-18.6h-0.5c-2.2-0.1-4.1 0.7-5.9 1.2z"/>
				<path class="st12" d="m198.2 262.4c1.8 1.5 3.9 1.9 5.4 0.1s1.9-4.4 1.1-6.7c-1-3.2-3.9-3.3-6.1-1.6"/>
				<path class="st22" d="m200.3 260.4c-0.5-0.1-1 0.4-1 0.9 0.1 0.5 0.6 0.9 1.1 0.9s1-0.2 1.4-0.6 0.6-0.8 0.9-1.3c0.4-0.7 0.9-1.5 0.9-2.4 0-1.1-0.7-2.1-1.7-2.5s-2.2-0.1-2.9 0.7c-0.2 0.2-0.3 0.5-0.1 0.6 0.2 0.2 0.5 0.1 0.7 0.1 0.8-0.1 1.6 0.5 1.7 1.3 0.2 0.9-0.2 2.3-1 2.3"/>
				<path class="st8" d="m179.5 266.4s-0.1 0.3-0.6 0.4-1.4-0.2-1.7-1.1-0.1-1.9-0.1-3.1c0.1-1.2 0.2-2.4 0.3-3.7 0.2-2.6 0.4-5 0.6-6.7s0.3-2.8 0.4-2.8 0 1.1-0.1 2.8-0.2 4.1-0.4 6.7c-0.1 1.3-0.2 2.5-0.3 3.7-0.1 1.1-0.3 2.2 0 2.9 0.2 0.8 1 1.1 1.4 1.1 0.3 0 0.5-0.3 0.5-0.2z"/>
				<path class="st13" d="m184.2 255.8c0.1-2.7 2.2-5.2 4.9-5.7 2.6-0.5 5.5 1 6.6 3.5"/>
				<path class="st23" d="m188.4 250.5c-0.6 0.5-0.9 1.4-0.8 2.2s0.5 1.6 1.1 2.1c0.4 0.3 0.8 0.6 1.3 0.6 0.4 0 0.8-0.3 1.1-0.6s0.4-0.7 0.5-1.2c0.2-0.6 0.2-1.3 0-2-0.2-0.6-0.7-1.2-1.3-1.4s-1.4 0-1.8 0.6"/>
					<path class="st8" d="m195.6 253.6c-0.2 0.1-0.5-0.8-1.6-1.6-1-0.9-2.9-1.7-4.9-1.4-2 0.4-3.4 1.9-4.1 3.1s-0.7 2.1-0.9 2.1c-0.1 0-0.3-1 0.3-2.4 0.5-1.4 2.1-3.3 4.5-3.7s4.6 0.7 5.6 1.8c1.1 1.1 1.2 2.1 1.1 2.1z"/>
				<path class="st13" d="m175.4 256.2c-0.1-2.7-2.2-5.2-4.9-5.7-2.6-0.5-5.5 1-6.6 3.5"/>
			<path class="st23" d="m167.9 252c-0.2 0.7-0.3 1.4-0.1 2 0.2 0.7 0.6 1.3 1.3 1.5 0.9 0.3 1.9-0.2 2.4-1s0.5-1.8 0.3-2.7c-0.1-0.6-0.4-1.2-0.9-1.4-0.4-0.3-1-0.2-1.5 0-1.1 0.4-1.8 1.5-1.8 2.7"/>
				<path class="st8" d="m187.8 266.2c-0.1 0.1-0.6-0.6-1.5-0.6-0.9-0.1-1.5 0.5-1.6 0.4-0.1 0 0.5-0.9 1.6-0.8 1.2 0 1.7 1 1.5 1z"/>
			<path class="st22" d="m179.9 270.9c0.1-0.8 0.6-1.6 1.3-2.1s1.5-0.8 2.3-1.1c0.6-0.2 1.2-0.3 1.8-0.1 0.7 0.3 1 1.1 1 1.8-0.1 0.7-0.5 1.4-1 1.9-0.8 0.8-1.9 1.3-3 1.2s-2.2-0.9-2.5-2"/>
				<path class="st8" d="m186.6 265s0 0.7-0.5 1.6c-0.4 1-1.3 2.2-2.7 3.1s-2.9 1.3-3.9 1.3c-1.1 0.1-1.7-0.1-1.7-0.2s0.7 0 1.7-0.1 2.4-0.5 3.7-1.4 2.2-2 2.7-2.9c0.5-0.8 0.6-1.4 0.7-1.4z"/>
				<path class="st8" d="m188 259.3c-0.1 0.1-0.3 0-0.3-0.1-0.1-0.1-0.1-0.3 0-0.4s0.3 0 0.3 0.1c0.1 0.1 0.1 0.3 0 0.4z"/>
				<path class="st8" d="m190.5 258.6c-0.1 0-0.2-0.1-0.2-0.2s0.1-0.2 0.2-0.2 0.2 0.1 0.2 0.2 0 0.2-0.2 0.2z"/>
				<path class="st8" d="m193.2 258.1c-0.1 0-0.2-0.2-0.2-0.3s0.2-0.2 0.3-0.2 0.2 0.2 0.2 0.3c-0.1 0.1-0.2 0.2-0.3 0.2z"/>
				<path class="st8" d="m203.6 259.1c-0.1 0 0.4-0.9-0.1-2.3-0.2-0.7-0.8-1.3-1.7-1.6s-2 0.1-2.4 1.1c-0.2 0.3-0.2 0.7-0.2 1.1h-0.4c0.4-1.2 1.9-1.3 2.6-0.6s0.7 1.6 0.4 2.2-0.7 0.9-1 1.1-0.5 0.2-0.5 0.2c-0.1-0.1 0.7-0.4 1.2-1.5 0.2-0.5 0.1-1.3-0.4-1.8s-1.7-0.4-1.9 0.4c0 0.1-0.2 0.2-0.3 0.1-0.1 0-0.1-0.1-0.2-0.2-0.1-0.4 0-0.9 0.2-1.4 0.3-0.5 0.7-1 1.3-1.2 0.5-0.2 1.1-0.2 1.6-0.1 1 0.3 1.7 1.1 1.9 1.8s0.2 1.4 0.1 1.8c0 0.7-0.1 0.9-0.2 0.9z"/>
				<path class="st8" d="m166.9 258.1c0.1 0.1 0.1 0.3 0 0.5s-0.3 0.3-0.4 0.3c-0.1-0.1-0.1-0.3 0-0.5 0.2-0.2 0.3-0.3 0.4-0.3z"/>
				<path class="st8" d="m170 258.7c0.1 0 0.2 0.1 0.2 0.2s-0.1 0.2-0.2 0.2-0.2-0.1-0.2-0.2c-0.1-0.1 0-0.2 0.2-0.2z"/>
				<path class="st8" d="m173.8 259.1c0.1 0 0.2 0.2 0.3 0.4 0 0.2-0.1 0.4-0.2 0.4s-0.2-0.2-0.3-0.4c0-0.2 0-0.4 0.2-0.4z"/>
			<path class="st6" d="m207.1 295.5s11.1 1.3 21.3 32.1l5.7 12.4-21.6 14.2-6.2-22.1 0.8-36.6z"/>
			<path class="st6" d="m152 296.6s-11.1 1.3-21.3 32.1l-5.7 12.4 21.6 14.2 11.1-17.5-5.7-41.2z"/>
				<path class="st21" d="m194 245.5c-0.3 1-2.5 1.2-5 1.6-2.5 0.3-4.6 0.8-5.2-0.1-0.3-0.4 0-1.1 0.9-1.9 0.8-0.7 2.2-1.4 3.8-1.6s3.1 0 4.1 0.5c1.1 0.4 1.5 1.1 1.4 1.5z"/>
				<path class="st21" d="m175.5 248.3c-0.7 0.7-3-0.3-5.9-0.6-2.8-0.4-5.3 0-5.8-0.9-0.2-0.4 0.2-1.2 1.4-1.9 1.1-0.7 2.9-1.1 4.9-0.8s3.6 1.2 4.5 2.1c1 0.8 1.2 1.7 0.9 2.1z"/>
				<path class="st16" d="m201.8 262s0.3 0.2 0.8 0.7l2.1 2.1c1.8 1.8 4 4.6 6.7 7.7l0.2 0.2-0.3 0.1c-1.8 0.6-3.7 1.2-5.7 1.7-2.3 0.6-4.6 1-6.6 1.1h-0.3v-0.3c0.7-3.7 1.3-7 1.7-9.5 0.2-1.1 0.4-2 0.5-2.7 0.1-0.6 0.2-1 0.2-1s0 0.4-0.1 1c-0.1 0.8-0.3 1.7-0.4 2.7-0.4 2.5-1 5.8-1.6 9.5l-0.2-0.2c2.1-0.2 4.3-0.6 6.6-1.2 2-0.5 3.9-1.1 5.7-1.7l-0.1 0.3c-2.7-3.1-4.8-5.9-6.5-7.8-0.8-0.9-1.5-1.6-2-2.1-0.4-0.3-0.7-0.6-0.7-0.6z"/>
				<path class="st16" d="m202 262.4l0.6 0.6c0.4 0.4 0.9 1 1.4 1.9 0.5 0.8 1.1 1.9 1.5 3.1 0.2 0.6 0.5 1.2 0.6 2 0 0.4-0.1 0.8-0.4 1.2-0.3 0.3-0.7 0.5-1.1 0.5-0.8 0.1-1.6-0.3-2.1-0.8s-0.9-1.2-1.1-1.8c-0.4-1.3-0.4-2.5-0.3-3.5s0.1-1.8 0.1-2.3v-0.8c0.1 0 0.3 1.2 0.2 3.2 0 1 0 2.1 0.4 3.3 0.2 0.6 0.5 1.2 1 1.6s1.1 0.8 1.8 0.7c0.7 0 1.2-0.5 1.1-1.2-0.1-0.6-0.3-1.3-0.5-1.9-0.4-1.2-0.9-2.3-1.4-3.1-1-1.7-1.8-2.6-1.8-2.7z"/>
				<path class="st16" d="m201.4 270.6h0.5c0.3 0.1 0.8 0.2 1.3 0.6s0.9 1.1 0.7 2-1.1 1.6-2.1 1.5-1.7-0.9-1.9-1.7 0.1-1.6 0.4-2.1c0.4-0.5 1-0.7 1.3-0.6 0.4 0.1 0.4 0.3 0.4 0.3s-0.2-0.1-0.5-0.1-0.7 0.1-1 0.6c-0.3 0.4-0.5 1.1-0.3 1.8s0.8 1.3 1.6 1.4 1.5-0.5 1.7-1.1c0.2-0.7-0.1-1.3-0.5-1.7-0.8-0.8-1.6-0.8-1.6-0.9z"/>
				<path class="st16" d="m207.3 269.1s0.2-0.1 0.5 0c0.3 0 0.8 0.2 1.2 0.7s0.6 1.2 0.5 2c-0.1 0.4-0.2 0.8-0.5 1.2s-0.9 0.5-1.4 0.2c-0.9-0.4-1.4-1.1-1.7-1.9-0.2-0.8 0-1.6 0.4-2s1-0.5 1.3-0.5 0.5 0.2 0.5 0.2h-0.5c-0.3 0-0.7 0.1-1.1 0.5-0.3 0.4-0.5 1-0.3 1.7 0.2 0.6 0.7 1.3 1.4 1.6s1.3-0.4 1.4-1.1 0-1.3-0.3-1.7c-0.6-1-1.4-0.9-1.4-0.9z"/>
				<path class="st16" d="m200.9 268c-0.1 0-0.1-0.3 0-0.8 0.2-0.5 0.6-1.1 1.4-1.3s1.5 0 1.9 0.3 0.5 0.6 0.5 0.6c-0.1 0-0.2-0.2-0.6-0.4s-1-0.4-1.6-0.2-1 0.7-1.2 1c-0.3 0.5-0.4 0.8-0.4 0.8z"/>
				<path class="st8" d="m201.7 421.5c-0.1 0-4.8-24.3-10.5-54.2-5.7-30-10.2-54.3-10.1-54.3s4.8 24.3 10.5 54.2c5.8 30 10.3 54.3 10.1 54.3z"/>
			<path class="st8" d="m196.2 365.4c-1.2 0.7-1.7 1.3-2 2.6-0.4 1.8 0.7 3.7 2.4 4.3s3.8-0.2 4.7-1.8 0.4-3.8-1-4.9-3.7-1-5 0.3"/>
			<path class="st8" d="m204.5 399.3c-1.2 0.7-1.7 1.3-2 2.6-0.4 1.8 0.7 3.7 2.4 4.3s3.8-0.2 4.7-1.8 0.4-3.8-1-4.9-3.7-1-5 0.3"/>
			<path class="st8" d="m191.8 331.5c-1.2 0.7-1.7 1.3-2 2.6-0.4 1.8 0.7 3.7 2.4 4.3s3.8-0.2 4.7-1.8 0.4-3.8-1-4.9-3.7-1-5 0.3"/>
				<path class="st8" d="m163.9 254.1c-0.1 0 0-1 1.1-2.2 1-1.1 3.1-2.3 5.6-1.8 2.4 0.5 4 2.3 4.5 3.7 0.6 1.4 0.4 2.4 0.3 2.4-0.2 0-0.2-0.9-0.9-2.1-0.6-1.2-2.1-2.7-4.1-3.1s-3.9 0.5-4.9 1.4-1.4 1.8-1.6 1.7z"/>
			<path class="st21" d="m158.4 264.2c1.5 1.4-1-3.9 0-5.6 1.1-1.7 2.7-3.1 3.5-5 1.2-2.8 0.5-6.1 1.9-8.8s4.7-3.9 7.7-4.2c3-0.4 6.1-0.1 9.1-1 2.9-0.9 5.7-3.3 5.7-6.3 0 0-4.3-6.8-14.1-5-9.9 1.8-25.8 24.5-13.8 35.9z"/>
				<path class="st8" d="m210.6 363.2s0-0.2 0.1-0.6c0.1-0.5 0.2-1.1 0.3-1.8 0.3-1.7 0.8-3.9 1.3-6.6 1.1-2.1 2.8-4.2 4-6.8s2-5.8 2.1-9.1c0.1-3.7-0.9-7.1-2.6-9.8s-3.9-4.6-5.8-6.1-3.5-2.6-4.6-3.3c-0.5-0.3-0.9-0.6-1.3-0.9-0.3-0.2-0.4-0.3-0.4-0.3s0.2 0.1 0.5 0.3c0.4 0.2 0.8 0.5 1.3 0.8 1.1 0.7 2.8 1.7 4.7 3.2s4.1 3.4 5.9 6.1 2.9 6.3 2.7 10c-0.1 3.4-0.9 6.6-2.2 9.3s-3 4.8-4.1 6.8c-0.6 2.7-1.1 4.9-1.5 6.6-0.2 0.7-0.3 1.3-0.4 1.8 0.1 0.1 0.1 0.4 0 0.4z"/>
				<path class="st8" d="m159.7 332.8c0.1 0-0.4 0.8-1.1 2.1s-1.7 3-2.9 5c-1.1 1.9-2.2 3.6-3 4.9-0.8 1.2-1.3 2-1.4 2s0.4-0.8 1.1-2.1 1.7-3 2.9-5c1.2-1.9 2.2-3.7 3-4.9 0.8-1.3 1.4-2 1.4-2z"/>
				<path class="st8" d="m184.5 350.9s-0.1 0.1-0.2 0.3c-0.2 0.1-0.4 0.4-0.8 0.6-0.7 0.5-1.7 1.2-3.2 1.9-2.8 1.4-7.3 2.4-12 1.3s-8.3-4-10.2-6.5c-1-1.2-1.6-2.3-2-3.1-0.2-0.4-0.3-0.7-0.4-0.9s-0.1-0.3-0.1-0.3c0.1-0.1 0.8 1.8 2.7 4.2s5.4 5.2 10 6.2c4.6 1.1 9 0.1 11.7-1.2 3.1-1.3 4.5-2.6 4.5-2.5z"/>
		<path class="st4" d="m60 381.9s-6.4 22-8.1 51.2-16.2 68.7-11.9 70.3 21.6 6.5 35.4 5.4 59.2 3.2 67.4-7.6c0 0 3.8-3.8 3.2-7-0.5-3.2 4.1-101.4-8.5-112.4 0.1 0.1-73.7-16.2-77.5 0.1z"/>
		<path class="st19" d="m52.1 316.7l-18 14.6 30.1 30.2-10.6 8.9s-26.6-14.4-39.2-26-7.6-23.7 1.1-29.3c8.8-5.6 21.8-15.5 21.8-15.5l14.8 17.1z"/>
		<path class="st24" d="m105.1 206c5.7 0.8 10.9 4.1 14.2 8.7 3.3 4.7 4.6 10.7 3.5 16.3-0.8 4-2.7 7.9-1.9 11.9 1.1 5.8 7.7 10.1 6.9 15.9-0.3 2.7-2.2 5.3-1.2 7.8 0.7 1.7 2.5 2.5 4 3.5 6.3 4.2 8.8 13.1 5.7 20l-34.4-10.9v-66.9l3.2-6.3z"/>
		<path class="st0" d="m88.5 270.6s-27.9 0.9-30.7 14.3 16.9 64 16.9 64 0.8 1.1-0.1 3.7-11.9 29.8-13.6 36.7c0 0 10.1-5.4 20.5 0s22.9 16.8 41 12.3 18.8-16 18.8-16l-16.6-39.3s9.3-43.6 8.6-54.2c-0.6-10.6-7.8-16.8-19.9-19.4s-24.9-2.1-24.9-2.1z"/>
		<path class="st19" d="m86.3 255.9v12.6s-12 5.1-13.9 7.7l25 18 21.6-19.1s-4.1-2.5-12.2-6.7v-12.4h-20.5z"/>
		<path class="st0" d="m30.9 296.6l18.4 24.1s42.7-22.5 36.6-34.5c-6.2-12-14.9-13-24.5-7.9s-30.5 18.3-30.5 18.3z"/>
		<path class="st24" d="m103 213.5c3-0.9 4-5.2 2.3-7.9s-5-3.9-8.2-4.2c-9.4-1-19.2 4.8-22.8 13.5-1.6 3.8-2.2 8.2-4.8 11.4-1.6 1.9-3.7 3.1-5.4 4.9-4.3 4.5-5 11.4-4.3 17.6 0.5 4 1.3 8.2-0.4 11.9-2.2 4.7-8.2 7.3-8.9 12.4-0.5 3.2 1.4 6.4 1.2 9.6-0.1 3.1-2 5.8-3.6 8.4s-3 5.8-2.1 8.7c10.1 0.3 20.3 0.6 30.4 0.9 1 0 2.1 0 3.1-0.4 1.5-0.8 6.2-1.3 6.5-3 1.3-6.7-0.1-14.9-0.3-23.4-0.5-21.8 17.1-37.9 17.7-59.7"/>
		<path class="st20" d="m86.3 262.1s12.7-0.9 20.5-1.6v5s-11.2 9.1-20.5-0.9v-2.5z"/>
			<path class="st19" d="m89.8 214.7c-8.7 2.3-14.5 10.5-13.9 19.5 0.9 13.1 4.7 31.6 19.9 30.4 23.3-1.9 20.3-31.2 19.2-40.6 0 0-3.2-10.9-19.3-10.5-2.2-0.1-4.1 0.7-5.9 1.2z"/>
			<path class="st19" d="m114.4 243.2c1.8 1.5 3.9 1.9 5.4 0.1s1.9-4.4 1.1-6.7c-1-3.2-3.9-3.3-6.1-1.6"/>
			<g class="st11">
				<path class="st20" d="m116.5 241.2c-0.5-0.1-1 0.4-1 0.9 0.1 0.5 0.6 0.9 1.1 0.9s1-0.2 1.4-0.6 0.6-0.8 0.9-1.3c0.4-0.7 0.9-1.5 0.9-2.4 0-1.1-0.7-2.1-1.7-2.5s-2.2-0.1-2.9 0.7c-0.2 0.2-0.3 0.5-0.1 0.6 0.2 0.2 0.5 0.1 0.7 0.1 0.8-0.1 1.6 0.5 1.7 1.3 0.2 0.9-0.2 2.2-1 2.3"/>
			</g>
		<path class="st19" d="m650.2 237v12.6s-12 5.1-13.9 7.7l1.6 1.1c13.7 9.9 32.4 8.9 45.1-2.3 0 0-4.1-2.5-12.2-6.7v-12.4h-20.6z"/>
		<path class="st25" d="m262.2 186.7c-8.7 2.3-14.5 10.5-13.9 19.5 0.8 13.1 4.7 31.6 19.9 30.4 23.3-1.9 20.3-31.2 19.2-40.6 0 0-3.1-10.9-19.3-10.5-2.2 0-4.2 0.7-5.9 1.2z"/>
		<path class="st25" d="m258.7 239v12.6s-12 5.1-13.9 7.7l1.6 1.1c13.7 9.9 32.4 8.9 45.1-2.3 0 0-4.1-2.5-12.2-6.7v-12.4h-20.6z"/>
		<path class="st26" d="m248.3 215.2s-6.5 34.3 21.2 33.2c27.7-1.2 19.8-36.8 19.8-36.8h-1.1s-1.4 25-20 25c-16.6 0.1-18.9-21.5-18.9-21.5l-1 0.1z"/>
		<path class="st19" d="m57.6 356.4s9.5 1.8 12.4 3.8c2.9 2.1 8.5 5.6 7.9 6s-2.2 1.9-4.8 0.8-5.5-1.4-5.6-0.5 1.6 6.1 2.4 7.8 2.5 13.6 2.2 13.8-2 0.9-3.3-2.5c-1.2-3.3-3.1-9-3.1-9l1.8 13.2s-2.6 0.7-3.1-0.9l-2.1-11.4 1.3 11.7s-1.6 0.5-2.3-2c-0.7-2.6-1.5-9.2-1.5-9.2l0.4 8.6s-1.5 0.7-2-2.9c-0.6-3.6-5.5-15.7-5.5-15.7l4.9-11.6z"/>
		<path class="st27" d="m162.3 225.2c-1.5 9.9-3 20-1.9 30 0.2 1.4 0.4 2.9 1.2 4.1s2.3 2.1 3.7 1.7"/>
			<path class="st8" d="m95.7 247.2s-0.1 0.3-0.6 0.4-1.4-0.2-1.7-1.1-0.1-1.9-0.1-3.1c0.1-1.2 0.2-2.4 0.3-3.7 0.2-2.6 0.4-5 0.6-6.7s0.3-2.8 0.4-2.8 0 1.1-0.1 2.8-0.2 4.1-0.4 6.7c-0.1 1.3-0.2 2.5-0.3 3.7-0.1 1.1-0.3 2.2 0 2.9 0.2 0.8 1 1.1 1.4 1.1 0.3 0 0.5-0.3 0.5-0.2z"/>
			<path class="st13" d="m100.3 236.6c0.1-2.7 2.2-5.2 4.9-5.7 2.6-0.5 5.5 1 6.6 3.5"/>
				<path class="st8" d="m111.8 234.4c-0.2 0.1-0.5-0.8-1.6-1.6-1-0.9-2.9-1.7-4.9-1.4-2 0.4-3.4 1.9-4.1 3.1s-0.7 2.1-0.9 2.1c-0.1 0-0.3-1 0.3-2.4 0.5-1.4 2.1-3.3 4.5-3.7s4.6 0.7 5.6 1.8 1.2 2.1 1.1 2.1z"/>
			<path class="st8" d="m104 231.2c-0.6 0.5-0.9 1.3-0.8 2.1s0.4 1.5 1 2c0.4 0.3 0.8 0.6 1.3 0.5 0.4 0 0.8-0.3 1.1-0.6s0.4-0.7 0.5-1.1c0.2-0.6 0.2-1.3 0-1.9s-0.7-1.2-1.3-1.3c-0.6-0.2-1.4 0-1.7 0.6"/>
			<path class="st13" d="m91.6 237c-0.1-2.7-2.2-5.2-4.9-5.7-2.6-0.5-5.5 1-6.6 3.5"/>
				<path class="st8" d="m80.1 234.9c-0.1 0 0-1 1.1-2.2 1-1.1 3.1-2.3 5.6-1.8 2.4 0.5 4 2.3 4.5 3.7 0.6 1.4 0.4 2.4 0.3 2.4-0.2 0-0.2-0.9-0.9-2.1-0.6-1.2-2.1-2.7-4.1-3.1s-3.9 0.5-4.9 1.4-1.4 1.8-1.6 1.7z"/>
			<path class="st8" d="m87.9 231.7c0.6 0.5 0.9 1.3 0.8 2.1s-0.4 1.5-1 2c-0.4 0.3-0.8 0.6-1.3 0.5-0.4 0-0.8-0.3-1.1-0.6s-0.4-0.7-0.5-1.1c-0.2-0.6-0.2-1.3 0-1.9s0.7-1.2 1.3-1.3c0.6-0.2 1.4 0 1.7 0.6"/>
			<path class="st8" d="m104 247c-0.1 0.1-0.6-0.6-1.5-0.6-0.9-0.1-1.5 0.5-1.6 0.4-0.1 0 0.5-0.9 1.6-0.8 1.2 0 1.7 1 1.5 1z"/>
		<g class="st28">
			<path class="st15" d="m96 251.7c0.1-0.8 0.6-1.6 1.3-2.1s1.5-0.8 2.3-1.1c0.6-0.2 1.2-0.3 1.8-0.1 0.7 0.3 1 1.1 1 1.8-0.1 0.7-0.5 1.4-1 1.9-0.8 0.8-1.9 1.3-3 1.2s-2.2-0.9-2.5-2"/>
		</g>
			<path class="st8" d="m102.8 245.8s0 0.7-0.5 1.6c-0.4 1-1.3 2.2-2.7 3.1s-2.9 1.3-3.9 1.3c-1.1 0.1-1.7-0.1-1.7-0.2s0.7 0 1.7-0.1 2.4-0.5 3.7-1.4 2.2-2 2.7-2.9c0.4-0.8 0.6-1.4 0.7-1.4z"/>
		<path class="st24" d="m80.5 226.8c2.9 1.5 6 2.5 9.2 3 0.5 0.1 0.9 0.1 1.4 0 0.4-0.1 0.9-0.4 1-0.9 0.2-0.7-0.5-1.3-1.1-1.7-2.7-1.7-6.1-2.3-9.2-1.7-0.3 0.1-0.7 0.2-0.9 0.4-0.2 0.3-0.1 0.8 0.3 0.8"/>
			<path class="st8" d="m104.2 240.1c-0.1 0.1-0.3 0-0.3-0.1-0.1-0.1-0.1-0.3 0-0.4s0.3 0 0.3 0.1c0.1 0.1 0.1 0.3 0 0.4z"/>
			<ellipse class="st8" cx="106.7" cy="239.1" rx=".2" ry=".2"/>
			<path class="st8" d="m109.4 238.9c-0.1 0-0.2-0.2-0.2-0.3s0.2-0.2 0.3-0.2 0.2 0.2 0.2 0.3c-0.1 0.1-0.2 0.2-0.3 0.2z"/>
			<path class="st8" d="m119.8 239.9c-0.1 0 0.4-0.9-0.1-2.3-0.2-0.7-0.8-1.3-1.7-1.6s-2 0.1-2.4 1.1c-0.2 0.3-0.2 0.7-0.2 1.1h-0.4c0.4-1.2 1.9-1.3 2.6-0.6s0.7 1.6 0.4 2.2-0.7 0.9-1 1.1-0.5 0.2-0.5 0.2c-0.1-0.1 0.7-0.4 1.2-1.5 0.2-0.5 0.1-1.3-0.4-1.8s-1.7-0.4-1.9 0.4c0 0.1-0.2 0.2-0.3 0.1-0.1 0-0.1-0.1-0.2-0.2-0.1-0.4 0-0.9 0.2-1.4 0.3-0.5 0.7-1 1.3-1.2 0.5-0.2 1.1-0.2 1.6-0.1 1 0.3 1.7 1.1 1.9 1.8s0.2 1.4 0.1 1.8c0 0.7-0.1 0.9-0.2 0.9z"/>
		<path class="st24" d="m73.9 243c3.6-0.2 7-2.8 8.2-6.2 0.9-2.4 0.8-5.3 2.5-7.3 1.3-1.5 3.4-2.1 5.3-2.9 6.4-2.9 10.5-10.3 9.4-17.3 0 0-13.7-3.6-22 12.5-8.3 16.2-3.4 21.2-3.4 21.2z"/>
			<path class="st8" d="m83.1 238.9c0.1 0.1 0.1 0.3 0 0.5s-0.3 0.3-0.4 0.3c-0.1-0.1-0.1-0.3 0-0.5s0.3-0.3 0.4-0.3z"/>
			<path class="st8" d="m86.1 239.5c0.1 0 0.2 0.1 0.2 0.2s-0.1 0.2-0.2 0.2-0.2-0.1-0.2-0.2 0.1-0.2 0.2-0.2z"/>
			<path class="st8" d="m90 239.9c0.1 0 0.2 0.2 0.3 0.4 0 0.2-0.1 0.4-0.2 0.4s-0.2-0.2-0.3-0.4c0-0.2 0-0.4 0.2-0.4z"/>
			<path class="st16" d="m117.4 243.5h0.6c0.4 0.1 0.9 0.3 1.5 0.7s1.1 1.1 1.4 2c0.2 0.9 0.1 2-0.5 3-0.6 0.9-1.7 1.4-2.6 1.5-1 0.1-1.8-0.3-2.3-0.8-1.1-1-1-2-1-2 0.1 0 0.1 0.9 1.2 1.7 0.5 0.4 1.3 0.7 2.1 0.6s1.7-0.5 2.3-1.3c0.5-0.8 0.7-1.8 0.5-2.6s-0.7-1.5-1.2-1.9c-1.1-0.8-2-0.8-2-0.9z"/>
		<path class="st24" d="m99.8 229.7c3.2-0.1 5.9-0.5 9-1.6 0.4-0.2 0.9-0.3 1.2-0.6s0.6-0.8 0.4-1.2c-0.2-0.7-1.1-0.9-1.8-0.9-3.2-0.1-6.4 1-8.9 3-0.3 0.2-0.5 0.5-0.6 0.8 0.1 0.3 0.4 0.7 0.7 0.5"/>
			<path class="st8" d="m125.2 301.6s0.1 0.1 0.3 0.4c0.2 0.2 0.5 0.6 0.8 1.1 0.7 1 1.6 2.4 2.6 4.2 1 1.9 2 4.2 2.4 7 0.2 1.4 0.3 2.9 0.1 4.4s-0.6 3.1-1.1 4.6c-1 3.1-2.2 5.9-2.9 8.6s-1.2 5.1-1.6 7.2c-0.3 2.1-0.5 3.8-0.6 4.9 0 0.5-0.1 1-0.1 1.3s-0.1 0.5-0.1 0.5v-0.5-1.4c0.1-1.2 0.2-2.9 0.5-5s0.8-4.6 1.5-7.2c0.7-2.7 1.8-5.6 2.8-8.6 0.5-1.5 0.9-3 1-4.5 0.2-1.5 0.1-2.9-0.1-4.3-0.4-2.7-1.4-5-2.3-6.9s-1.9-3.3-2.5-4.3c-0.3-0.4-0.5-0.8-0.7-1.1 0.1-0.3 0-0.4 0-0.4z"/>
			<path class="st8" d="m82.3 354.8c-0.1 0.1-1.5-1.2-3.5-2.6-1.9-1.4-3.6-2.3-3.6-2.4s1.9 0.7 3.8 2.1c2.1 1.4 3.4 2.9 3.3 2.9z"/>
			<path class="st8" d="m86 350.1c0 0.1-2.4 0.3-5.5 0.4-3 0.1-5.5 0.1-5.5 0s2.4-0.3 5.5-0.4c3-0.1 5.5-0.1 5.5 0z"/>
		<path class="st19" d="m199.4 292.7c2.8-1.5 6.3-1.6 9.1-0.1 3.2 1.7 5.1 4.9 6.4 8.3 0.4 1 0.7 2.3 0 3.1s-2 0.6-2.9 0c-1.8-1.2-2.4-3.6-3.6-5.4-2-3.1-5.8-4.5-9.3-5.7"/>
			<path class="st8" d="m204.8 294.6s0.3 0.2 0.8 0.7 1.2 1.2 2 2.2c0.8 0.9 1.7 2.1 2.6 3.4 0.5 0.7 0.9 1.4 1.4 2.1 0.4 0.7 1 1.5 1.8 1.6 0.4 0.1 0.8-0.1 1-0.4s0.3-0.7 0.3-1.1c0-0.8-0.2-1.7-0.4-2.5-0.4-1.5-1-2.9-1.7-3.9-1.3-2.1-2.5-3-2.5-3s0.1 0 0.2 0.1 0.4 0.3 0.6 0.5c0.5 0.5 1.2 1.2 1.9 2.2s1.4 2.4 1.8 4c0.2 0.8 0.4 1.6 0.4 2.6 0 0.5-0.1 1-0.4 1.4s-0.9 0.6-1.4 0.5c-1.1-0.2-1.7-1.1-2.1-1.9-0.5-0.8-0.9-1.5-1.4-2.1-0.9-1.3-1.8-2.5-2.5-3.5-0.8-1-1.4-1.7-1.8-2.2-0.4-0.4-0.6-0.7-0.6-0.7z"/>
			<path class="st8" d="m267.7 226s-0.1 0.3-0.6 0.4-1.4-0.2-1.7-1.1-0.1-1.9-0.1-3.1c0.1-1.2 0.2-2.4 0.3-3.7 0.2-2.6 0.4-5 0.6-6.7s0.3-2.8 0.4-2.8 0 1.1-0.1 2.8-0.2 4.1-0.4 6.7c-0.1 1.3-0.2 2.5-0.3 3.7-0.1 1.1-0.3 2.2 0 2.9 0.2 0.8 1 1.1 1.4 1.1 0.4 0.1 0.5-0.2 0.5-0.2z"/>
			<path class="st13" d="m271.5 212.8c0.1-2.7 2.2-5.2 4.9-5.7 2.6-0.5 5.5 1 6.6 3.5"/>
				<path class="st8" d="m283 210.6c-0.1 0-0.4-0.8-1.5-1.8-1-0.9-3-1.9-5.1-1.5s-3.6 2-4.2 3.2c-0.6 1.3-0.6 2.2-0.7 2.2 0 0-0.1-0.2 0-0.6 0-0.4 0.2-1 0.5-1.7 0.6-1.3 2.1-3.1 4.4-3.5s4.4 0.7 5.4 1.7c0.5 0.5 0.9 1 1 1.4s0.2 0.6 0.2 0.6z"/>
			<path class="st8" d="m275.2 207.4c-0.6 0.5-0.9 1.3-0.8 2.1s0.4 1.5 1 2c0.4 0.3 0.8 0.6 1.3 0.5 0.4 0 0.8-0.3 1.1-0.6s0.4-0.7 0.5-1.1c0.2-0.6 0.2-1.3 0-1.9s-0.7-1.2-1.3-1.3c-0.6-0.2-1.4 0-1.7 0.6"/>
			<path class="st13" d="m263.4 213.9c-0.1-2.7-2.2-5.2-4.9-5.7-2.6-0.5-5.5 1-6.6 3.5"/>
				<path class="st8" d="m252 211.7s0-0.2 0.2-0.6 0.5-0.9 1-1.4c1-1 3.1-2.1 5.4-1.7 2.3 0.5 3.8 2.2 4.4 3.5 0.3 0.7 0.4 1.3 0.5 1.7v0.6c-0.1 0-0.1-0.9-0.7-2.2-0.6-1.2-2.1-2.8-4.2-3.2s-4.1 0.6-5.1 1.5c-1.1 1-1.5 1.9-1.5 1.8z"/>
			<path class="st8" d="m259.7 208.5c0.6 0.5 0.9 1.3 0.8 2.1s-0.4 1.5-1 2c-0.4 0.3-0.8 0.6-1.3 0.5-0.4 0-0.8-0.3-1.1-0.6s-0.4-0.7-0.5-1.1c-0.2-0.6-0.2-1.3 0-1.9s0.7-1.2 1.3-1.3c0.6-0.2 1.4 0 1.7 0.6"/>
			<path class="st8" d="m276.2 227.1c-0.1 0.1-0.6-0.6-1.5-0.6-0.9-0.1-1.5 0.5-1.6 0.4-0.1 0 0.5-0.9 1.6-0.8 1.2 0 1.7 1 1.5 1z"/>
			<path class="st8" d="m275 226s0 0.7-0.5 1.6c-0.4 1-1.3 2.2-2.7 3.1s-2.9 1.3-3.9 1.3c-1.1 0.1-1.7-0.1-1.7-0.2s0.7 0 1.7-0.1 2.4-0.5 3.7-1.4 2.2-2 2.7-2.9c0.4-0.8 0.6-1.5 0.7-1.4z"/>
			<path class="st25" d="m286.8 218.7c1.8 1.5 3.9 1.9 5.4 0.1s1.9-4.4 1.1-6.7c-1-3.2-3.9-3.3-6.1-1.6"/>
			<g class="st11">
				<path class="st20" d="m288.9 216.7c-0.5-0.1-1 0.4-1 0.9 0.1 0.5 0.6 0.9 1.1 0.9s1-0.2 1.4-0.6 0.6-0.8 0.9-1.3c0.4-0.7 0.9-1.5 0.9-2.4 0-1.1-0.7-2.1-1.7-2.5s-2.2-0.1-2.9 0.7c-0.2 0.2-0.3 0.5-0.1 0.6 0.2 0.2 0.5 0.1 0.7 0.1 0.8-0.1 1.6 0.5 1.7 1.3s-0.2 2.3-1 2.3"/>
			</g>
				<path class="st8" d="m292.1 215.5c-0.1 0 0.4-0.9-0.1-2.3-0.2-0.7-0.8-1.3-1.7-1.6s-2 0.1-2.4 1.1c-0.2 0.3-0.2 0.7-0.2 1.1h-0.4c0.4-1.2 1.9-1.3 2.6-0.6s0.7 1.6 0.4 2.2-0.7 0.9-1 1.1-0.5 0.2-0.5 0.2c-0.1-0.1 0.7-0.4 1.2-1.5 0.2-0.5 0.1-1.3-0.4-1.8s-1.7-0.4-1.9 0.4c0 0.1-0.2 0.2-0.3 0.1-0.1 0-0.1-0.1-0.2-0.2-0.1-0.4 0-0.9 0.2-1.4 0.3-0.5 0.7-1 1.3-1.2 0.5-0.2 1.1-0.2 1.6-0.1 1 0.3 1.7 1.1 1.9 1.8s0.2 1.4 0.1 1.8c0 0.8-0.1 1-0.2 0.9z"/>
			<path class="st25" d="m249.9 219.2c-1.8 1.5-3.9 1.9-5.4 0.1s-1.9-4.4-1.1-6.7c1-3.2 3.9-3.3 6.1-1.6"/>
			<g class="st11">
				<path class="st20" d="m247.8 217.2c0.5-0.1 1 0.4 1 0.9-0.1 0.5-0.6 0.9-1.1 0.9s-1-0.2-1.4-0.6-0.6-0.8-0.9-1.3c-0.4-0.7-0.9-1.5-0.9-2.4 0-1.1 0.7-2.1 1.7-2.5s2.2-0.1 2.9 0.7c0.2 0.2 0.3 0.5 0.1 0.6-0.2 0.2-0.5 0.1-0.7 0.1-0.8-0.1-1.6 0.5-1.7 1.3-0.2 0.9 0.2 2.3 1 2.3"/>
			</g>
				<path class="st8" d="m244.6 216.1s-0.2-0.2-0.3-0.6-0.2-1 0.1-1.8c0.2-0.7 0.9-1.5 1.9-1.8 0.5-0.1 1.1-0.2 1.6 0.1 0.5 0.2 1 0.6 1.3 1.2 0.2 0.4 0.3 0.9 0.2 1.4 0 0.1-0.1 0.2-0.2 0.2s-0.1-0.1-0.2-0.2c-0.2-0.8-1.4-0.9-1.9-0.4s-0.6 1.3-0.4 1.8c0.4 1.1 1.3 1.4 1.2 1.5 0 0-0.2 0-0.5-0.2s-0.7-0.5-1-1.1-0.3-1.5 0.4-2.2c0.6-0.7 2.2-0.6 2.6 0.6h-0.4c0.1-0.4 0-0.7-0.2-1.1-0.5-0.9-1.6-1.3-2.4-1.1-0.9 0.2-1.5 0.9-1.7 1.6-0.5 1.2 0 2.1-0.1 2.1z"/>
			<path class="st29" d="m267.7 174.1s-0.5 0.4-1.5 0.9c-1 0.6-2.4 1.4-4.2 2.5-3.4 2.2-8 5.7-11.4 11-3.4 5.2-4.4 11-4.1 15 0.3 4.1 1.6 6.4 1.4 6.4 0 0-0.4-0.5-0.8-1.6s-0.9-2.7-1.1-4.8c-0.5-4.1 0.5-10.1 4-15.5s8.2-8.9 11.7-11c1.8-1.1 3.3-1.8 4.3-2.3 1.1-0.4 1.7-0.7 1.7-0.6z"/>
			<path class="st29" d="m266.2 175.7s0.5 0 1.4 0.1 2.2 0.4 3.7 0.9c3.1 1 7.1 3.3 10.4 7 3.3 3.8 5 8.1 5.6 11.3 0.3 1.6 0.4 2.9 0.4 3.8s0 1.4-0.1 1.4-0.1-2-0.9-5.1c-0.7-3.1-2.4-7.3-5.6-10.9-3.2-3.7-7.1-5.9-10.1-7-2.8-1.1-4.8-1.3-4.8-1.5z"/>
			<path class="st26" d="m281.5 201.3c-0.5 0.9-3.1 0.3-6 0.7-3 0.2-5.4 1.2-6.1 0.5-0.3-0.4 0-1.2 1-2.1s2.7-1.7 4.7-1.9 3.9 0.3 5 1c1.2 0.6 1.7 1.4 1.4 1.8z"/>
			<path class="st26" d="m262.4 205.9c-0.1 1-2.8 1.6-6 1.5s-5.9-0.8-5.9-1.8 2.7-1.9 6-1.8 6 1.1 5.9 2.1z"/>
		<path class="st25" d="m246.2 339.7"/>
		<path class="st25" d="m255.9 341.2s-9-4.9-12.8-5.1-10.8-1.1-10.5-0.4c0.3 0.8 0.6 3.1 3.5 3.9s5.5 2.5 5 3.3-5.4 4-7.2 4.9-11.2 9.6-11.1 10c0.1 0.3 1.1 2.1 4.3 0.2s8.6-5.3 8.6-5.3l-10.3 9.7s1.7 2.3 3.2 1.3l9.4-8-8.9 8.8s1 1.5 3.3-0.1c2.3-1.7 7.4-6.7 7.4-6.7l-6.1 6.8s0.8 1.5 3.6-1.1c2.9-2.6 15.1-9.3 15.1-9.3l3.5-12.9z"/>
		<path class="st4" d="m281.9 288.5l7.3 33.5-40.2 12.9 4.5 20.3s53.4-6.9 59-16.6c5.5-9.7-3.3-59.6-3.3-59.6l-27.3 9.5z"/>
			<path class="st8" d="m291.8 330.1c-0.1 0-0.9-2-2-4.5s-2.2-4.4-2-4.4c0.1-0.1 1.3 1.8 2.4 4.3 1.2 2.4 1.7 4.6 1.6 4.6z"/>
			<path class="st8" d="m296 327c-0.1 0.1-1.8-1.1-3.9-2.7s-3.7-2.9-3.6-3 1.8 1.1 3.9 2.7c2 1.6 3.6 2.9 3.6 3z"/>
			<path class="st8" d="m311.4 340.5s-0.2 0.1-0.5 0.3c-0.4 0.2-0.9 0.5-1.5 0.8-1.3 0.7-3.3 1.7-5.7 2.9-4.9 2.3-11.8 5.1-19.7 7.4-7.9 2.2-15.3 3.5-20.7 4-2.7 0.3-4.9 0.5-6.4 0.5-0.7 0-1.3 0.1-1.7 0.1h-0.6s0.2 0 0.6-0.1c0.5 0 1.1-0.1 1.7-0.2 1.5-0.1 3.7-0.3 6.3-0.7 5.3-0.6 12.7-1.9 20.6-4.1s14.8-5 19.7-7.2c2.4-1.1 4.4-2.1 5.8-2.8 0.6-0.3 1.1-0.6 1.6-0.8 0.3-0.1 0.5-0.2 0.5-0.1z"/>
			<path class="st8" d="m280.7 287.5s0.1 0.3 0.3 1 0.4 1.7 0.7 2.8c0.6 2.5 1.5 6.1 2.6 10.4 1.1 4.4 2.4 9.7 3.9 15.5 0.2 0.7 0.4 1.5 0.5 2.2 0.1 0.8 0.2 1.6-0.2 2.4s-1.3 1.2-2 1.4c-0.8 0.2-1.6 0.5-2.3 0.7-3.1 0.9-6.4 1.9-9.7 2.8-9.5 2.7-18.3 5.3-25.7 7.4l0.1-0.2c1.9 6.8 3.4 12.4 4.5 16.5 0.5 1.9 0.9 3.5 1.2 4.6 0.1 0.5 0.2 0.9 0.3 1.2s0.1 0.4 0.1 0.4-0.1-0.1-0.1-0.4c-0.1-0.3-0.2-0.7-0.4-1.2-0.3-1.1-0.8-2.7-1.3-4.6-1.1-4-2.7-9.7-4.7-16.4v-0.2l0.2-0.1c7.4-2.1 16.2-4.7 25.6-7.4 3.3-1 6.6-1.9 9.7-2.8 0.8-0.2 1.6-0.5 2.3-0.7s1.5-0.6 1.8-1.2 0.3-1.4 0.1-2.1c-0.1-0.7-0.4-1.5-0.5-2.2-1.4-5.8-2.7-11.1-3.8-15.5-1-4.4-1.9-7.9-2.5-10.5-0.3-1.2-0.5-2.1-0.7-2.9v-0.9z"/>
			<path class="st8" d="m261.3 298.2s-0.1-0.4-0.1-1.2v-3.4c0.1-2.8 0.2-6.8 0.6-11.1s0.9-8.2 1.3-11c0.2-1.4 0.4-2.5 0.6-3.3s0.2-1.2 0.3-1.2c0 0 0 0.4-0.1 1.2-0.1 1-0.3 2.1-0.4 3.3-0.4 2.8-0.8 6.7-1.2 11s-0.6 8.2-0.7 11.1c-0.1 1.3-0.1 2.4-0.2 3.4 0 0.7 0 1.2-0.1 1.2z"/>
			<path class="st8" d="m267.3 273.2c0.1 0.1-0.7 0.4-0.9 1.5-0.1 0.5-0.1 1.2 0.4 1.8 0.4 0.6 1.2 0.8 2 0.6s1.4-0.8 1.5-1.5-0.2-1.3-0.5-1.7c-0.7-0.9-1.5-0.8-1.5-0.9-0.1 0 0.9-0.3 1.7 0.7 0.4 0.4 0.8 1.1 0.7 2s-0.9 1.6-1.8 1.8-1.9-0.1-2.4-0.8-0.5-1.5-0.3-2.1c0.2-1.2 1.1-1.4 1.1-1.4z"/>
			<path class="st8" d="m266.7 283.2c0.1 0.1-0.7 0.3-1 1.3-0.1 0.5-0.1 1.1 0.2 1.7 0.3 0.5 1.1 0.8 1.8 0.6s1.3-0.7 1.4-1.3-0.1-1.2-0.4-1.6c-0.7-0.8-1.4-0.8-1.4-0.8s0.8-0.2 1.6 0.6c0.4 0.4 0.7 1.1 0.6 1.9s-0.9 1.5-1.7 1.7c-0.9 0.2-1.8-0.1-2.3-0.8-0.4-0.7-0.4-1.4-0.2-2 0.5-1.2 1.4-1.4 1.4-1.3z"/>
			<path class="st30" d="m223.9 318"/>
			<path class="st30" d="m227.4 288.1"/>
			<path class="st8" d="m227.7 327.2v-0.4-1.1-4.2c0.1-3.6 0.3-8.5 0.6-13.9s0.8-10.3 1.1-13.8c0.2-1.8 0.3-3.2 0.5-4.2 0.1-0.4 0.1-0.8 0.2-1.1 0-0.3 0.1-0.4 0.1-0.4v0.4c0 0.3 0 0.7-0.1 1.1-0.1 1.1-0.2 2.5-0.3 4.2-0.3 3.5-0.7 8.4-1 13.8s-0.6 10.3-0.7 13.8c-0.1 1.6-0.1 3-0.2 4.2 0 0.4 0 0.8-0.1 1.1-0.1 0.4-0.1 0.5-0.1 0.5z"/>
			<path class="st31" d="m294.3 285.6c-0.1-0.1 0.8-2.1 2-4.5s2.3-4.3 2.4-4.3c0.1 0.1-0.8 2.1-2 4.5-1.3 2.4-2.3 4.3-2.4 4.3z"/>
			<path class="st31" d="m299.1 300.6c-0.1 0.1-1.5-1.2-3.2-3-1.7-1.7-2.9-3.2-2.8-3.3s1.5 1.2 3.2 3 2.9 3.2 2.8 3.3z"/>
			<path class="st31" d="m307.1 303.6c-0.1 0-0.3-2.2-0.3-5-0.1-2.8 0-5 0.1-5s0.3 2.2 0.3 5c0.1 2.8 0 5-0.1 5z"/>
			<path class="st31" d="m302.6 313.7c0 0.1-1.5-0.2-3.2-0.8s-3.1-1.1-3.1-1.2 1.5 0.2 3.2 0.8c1.8 0.6 3.1 1.1 3.1 1.2z"/>
			<path class="st31" d="m309.4 319.9c0.1 0.1-0.8 1.9-2 4.1s-2.2 3.9-2.3 3.9c-0.1-0.1 0.8-1.9 2-4.1 1.2-2.3 2.2-4 2.3-3.9z"/>
			<path class="st31" d="m299.6 339.4c-0.1 0-0.8-1.3-1.5-3s-1.2-3.2-1-3.2c0.1 0 0.8 1.3 1.5 3s1.1 3.1 1 3.2z"/>
			<path class="st31" d="m283.1 333.6c0 0.1-1.8 0.2-4 0.2s-4-0.1-4-0.3c0-0.1 1.8-0.2 4-0.2 2.3 0 4 0.2 4 0.3z"/>
			<path class="st31" d="m286.4 341.1c0.1 0.1-1.4 1.3-3.3 2.7s-3.5 2.4-3.6 2.3 1.4-1.3 3.3-2.7c2-1.3 3.6-2.4 3.6-2.3z"/>
			<path class="st31" d="m268.6 342.3c0 0.1-2 0.8-4.4 1.6-2.5 0.8-4.5 1.3-4.6 1.2 0-0.1 2-0.8 4.4-1.6 2.6-0.8 4.6-1.3 4.6-1.2z"/>
			<path class="st31" d="m265.4 337.3c0 0.1-1.3 0-2.9-0.2s-2.9-0.5-2.8-0.6c0-0.1 1.3 0 2.9 0.2 1.5 0.3 2.8 0.5 2.8 0.6z"/>
			<path class="st31" d="m276.1 316.6c-0.1 0 0.4-2.7 1.2-5.9s1.5-5.8 1.6-5.8-0.4 2.7-1.2 5.9-1.5 5.8-1.6 5.8z"/>
			<path class="st31" d="m268.7 310.4c-0.1 0.1-1.5-0.8-3.2-1.9-1.7-1.2-3.1-2.2-3-2.3s1.5 0.8 3.2 1.9 3 2.2 3 2.3z"/>
			<path class="st31" d="m275.4 291.4c0.1 0.1-0.5 1.5-1.4 3.3s-1.7 3.2-1.8 3.1 0.5-1.5 1.4-3.3 1.7-3.2 1.8-3.1z"/>
			<path class="st31" d="m284.7 279.1c-0.1 0.1-1.5-0.8-3.1-1.9-1.7-1.2-2.9-2.2-2.9-2.3 0.1-0.1 1.5 0.8 3.1 1.9 1.6 1.2 2.9 2.2 2.9 2.3z"/>
			<path class="st31" d="m294.2 268.7c-0.1-0.1 0.9-0.9 2.1-1.8s2.3-1.6 2.4-1.5-0.9 0.9-2.1 1.8c-1.3 0.9-2.3 1.6-2.4 1.5z"/>
			<path class="st31" d="m305.9 283.1c-0.1 0-0.6-1.6-1-3.7s-0.7-3.8-0.6-3.8 0.6 1.6 1 3.7 0.7 3.8 0.6 3.8z"/>
			<path class="st31" d="m248.7 287.6c-0.1 0-0.8-2-1.2-4.7-0.4-2.6-0.4-4.8-0.3-4.8s0.3 2.1 0.7 4.8c0.4 2.6 0.9 4.7 0.8 4.7z"/>
			<path class="st31" d="m235 280.2c0.1 0.1-1 1.3-2.7 2.2-1.7 1-3.3 1.3-3.3 1.2s1.5-0.6 3.1-1.6c1.6-0.9 2.8-1.9 2.9-1.8z"/>
			<path class="st31" d="m236.6 273.4c-0.1 0.1-1-0.8-2-2s-1.8-2.2-1.7-2.3 1 0.8 2 2c1.1 1.2 1.8 2.2 1.7 2.3z"/>
			<path class="st31" d="m245.7 268.6c-0.1 0.1-0.9-0.8-1.8-2s-1.5-2.2-1.5-2.3c0.1-0.1 0.9 0.8 1.8 2s1.6 2.2 1.5 2.3z"/>
			<path class="st31" d="m255.3 278.3c-0.1 0 0.4-1.8 1.2-3.8 0.8-2.1 1.5-3.7 1.6-3.7s-0.4 1.8-1.2 3.8c-0.7 2.1-1.4 3.8-1.6 3.7z"/>
			<path class="st31" d="m240.7 304.6c-0.1 0-0.9-2.3-1.7-5.3s-1.4-5.4-1.3-5.4 0.9 2.3 1.7 5.3c0.8 2.9 1.4 5.4 1.3 5.4z"/>
			<path class="st31" d="m250.9 308.6c-0.1 0 0.6-2.6 1.7-5.8 1-3.2 2-5.7 2.1-5.7s-0.6 2.6-1.7 5.8-2 5.7-2.1 5.7z"/>
			<path class="st31" d="m243.7 323.8c-0.1 0.1-1.9-1.5-4-3.5s-3.8-3.7-3.7-3.8 1.9 1.5 4 3.5 3.8 3.7 3.7 3.8z"/>
			<path class="st31" d="m264.4 319.1c0 0.1-0.8 0.3-2.1 0.7s-3 1.1-4.8 2c-1.8 1-3.3 2-4.4 2.9-1.1 0.8-1.7 1.4-1.7 1.3 0 0 0.5-0.7 1.5-1.6s2.6-2 4.4-3 3.6-1.6 4.9-2c1.4-0.2 2.2-0.3 2.2-0.3z"/>
			<path class="st31" d="m249.7 371.1s0 0.3-0.2 0.7l-0.2 0.4v-0.5c-0.1-0.9-0.2-2.8-0.3-4.8-0.1-3.1-0.1-5.6 0-5.6s0.3 2.5 0.4 5.6c0.1 2.1 0.1 3.9 0 4.8h-0.2c0.3-0.4 0.4-0.6 0.5-0.6z"/>
			<path class="st31" d="m263.6 367.5c0.1 0.1-1.7 1.5-4 3.2-2.3 1.6-4.2 2.9-4.3 2.8s1.7-1.5 4-3.2c2.3-1.6 4.3-2.8 4.3-2.8z"/>
			<path class="st31" d="m264.9 382.9c0 0.1-2-0.3-4.4-1s-4.3-1.3-4.3-1.4 2 0.3 4.4 1c2.4 0.6 4.3 1.2 4.3 1.4z"/>
			<path class="st31" d="m263.9 390.8c0 0.1-1.3 0.5-3.1 1-1.7 0.4-3.1 0.7-3.2 0.5 0-0.1 1.3-0.5 3.1-1 1.8-0.4 3.2-0.6 3.2-0.5z"/>
			<path class="st31" d="m277.3 374c0.1 0-0.4 1.8-1.1 4-0.7 2.1-1.4 3.9-1.5 3.8-0.1 0 0.4-1.8 1.1-4 0.7-2.1 1.4-3.8 1.5-3.8z"/>
			<path class="st31" d="m277.6 363.1c0.1 0.1-1.8 1.3-4 3-2.1 1.7-3.7 3.3-3.8 3.2s1.3-1.8 3.5-3.6c2.3-1.7 4.3-2.7 4.3-2.6z"/>
			<path class="st31" d="m274.4 358.6c0 0.1-1.8-0.2-4-0.7s-4-1-4-1.1 1.8 0.2 4 0.7c2.3 0.5 4 1 4 1.1z"/>
			<path class="st31" d="m290.6 360.3c-0.1 0 0.4-1.9 1-4.1 0.7-2.2 1.3-4 1.5-3.9 0.1 0-0.4 1.9-1 4.1-0.7 2.2-1.3 4-1.5 3.9z"/>
			<path class="st31" d="m291.3 373.9c-0.1 0.1-1.3-1.3-2.8-3.1-1.4-1.8-2.5-3.3-2.4-3.3 0.1-0.1 1.3 1.3 2.8 3.1 1.5 1.7 2.5 3.2 2.4 3.3z"/>
			<path class="st31" d="m298.2 373.8c0.1 0 0.1 1.7 0 3.9-0.1 2.1-0.3 3.9-0.4 3.9s-0.1-1.7 0-3.9c0.1-2.1 0.3-3.9 0.4-3.9z"/>
			<path class="st31" d="m299.9 354.8c0.1 0-0.3 1.8-1 4s-1.3 4-1.4 3.9c-0.1 0 0.3-1.8 1-4 0.6-2.1 1.3-3.9 1.4-3.9z"/>
			<path class="st31" d="m235.2 333.1c-0.1 0-0.2-1.6-0.5-3.6s-0.6-3.6-0.5-3.6 0.7 1.5 1 3.6c0.2 1.9 0.1 3.6 0 3.6z"/>
			<path class="st31" d="m220.1 293.1c-0.1 0 0.3-1.4 1-3.1s1.3-3 1.4-2.9c0.1 0-0.3 1.4-1 3.1-0.6 1.6-1.2 2.9-1.4 2.9z"/>
			<path class="st31" d="m222.5 282.7c0.1 0.1-1.6 1.3-3.7 2.6s-3.9 2.3-3.9 2.2c-0.1-0.1 1.6-1.3 3.7-2.6s3.8-2.3 3.9-2.2z"/>
				<path class="st7" d="m324.6 402.1s2.3 9.4 1.6 12.8c-0.7 3.5-1.6 10.1-2.2 9.6-0.6-0.4-2.7-1.3-2.7-4.1s-1-5.5-1.8-5.3c-0.9 0.2-4.9 4-6.1 5.4s-11.4 7.9-11.7 7.7-1.6-1.5 0.9-4 6.9-6.6 6.9-6.6l-11.2 7.1s-1.7-2.1-0.5-3.2l9.5-6.6-10.1 6s-1.2-1.2 0.9-2.9 7.8-5.2 7.8-5.2l-7.7 3.9s-1.2-1.1 1.8-3.1 12-11.5 12-11.5h12.6z"/>
				<polygon class="st7" points="344.2 326.1 325.7 407.5 311.7 403.3 323.7 313.1"/>
			<polygon class="st32" points="337.8 368 341.8 357.9 393.5 360.8 397.4 374.8"/>
			<path class="st33" d="m368.6 214.1c8 0.1 15.4 6.6 16.6 14.5 0.7 4.6-0.6 9.3-0.6 14-0.1 9.1 4.2 17.5 7.3 26.1 3.1 8.5 4.8 18.6-0.1 26.3-1.9 3-5.1 5.5-8.7 5.3-4.3-0.2-7.5-4.1-9.1-8-3.5-8.4-2.3-18-0.3-26.9s4.9-17.7 4.9-26.8c-0.1-7.3-2.6-15.3-8.8-19.1"/>
			<path class="st32" d="m388.6 339.6c-0.6 1.7-0.1 3.8 1.3 5 1.3 1.2 3.4 1.6 5.1 0.8 2.5-1.1 3.5-4 4.4-6.6s2.4-5.4 5.1-5.9c2.1-0.4 4.6 0.8 6.3-0.4 1.8-1.2 1.6-4.1 3.1-5.7 1-1 2.5-1.3 3.7-2s2.1-2.6 1-3.5l-12.1-21s-12.3-22.5-22-20.9l4.1 60.2z"/>
			<path class="st32" d="m335.7 339.6c0.6 1.7 0.1 3.8-1.3 5-1.3 1.2-3.4 1.6-5.1 0.8-2.5-1.1-3.5-4-4.4-6.6s-2.4-5.4-5.1-5.9c-2.1-0.4-4.6 0.8-6.3-0.4-1.8-1.2-1.6-4.1-3.1-5.7-1-1-2.5-1.3-3.7-2s-2.1-2.6-1-3.5l12.1-21s9.6-21.2 16-18.7l1.9 58z"/>
			<path class="st32" d="m391.8 351.7s9.3-43.6 8.6-54.2c-0.6-10.6-7.8-16.8-19.9-19.4s-24.9-2.1-24.9-2.1-27.9 0.9-30.7 14.3 16.9 64 16.9 64 0.8 1.1-0.1 3.7c0 0 51.6 7.3 51.7 2.9 0.3-4.4-1.6-9.2-1.6-9.2"/>
			<path class="st7" d="m353.5 261.3v12.6s-12 5.1-13.9 7.7l25.2 49 21.4-50.2s-4.1-2.5-12.2-6.7v-12.4h-20.5z"/>
			<path class="st34" d="m353.5 267.4s12.7-0.9 20.5-1.6v5s-11.2 9.1-20.5-0.9v-2.5z"/>
				<path class="st7" d="m357 220c-8.7 2.3-14.5 10.5-13.9 19.5 0.9 13.1 4.7 31.6 19.9 30.4 23.3-1.9 20.3-31.2 19.2-40.6 0 0-3.2-10.9-19.3-10.5-2.2 0-4.1 0.8-5.9 1.2z"/>
				<path class="st7" d="m381.5 248.6c1.8 1.5 3.9 1.9 5.4 0.1s1.9-4.4 1.1-6.7c-1-3.2-3.9-3.3-6.1-1.6"/>
				<g class="st11">
					<path class="st20" d="m383.7 246.5c-0.5-0.1-1 0.4-1 0.9 0.1 0.5 0.6 0.9 1.1 0.9s1-0.2 1.4-0.6 0.6-0.8 0.9-1.3c0.4-0.7 0.9-1.5 0.9-2.4 0-1.1-0.7-2.1-1.7-2.5s-2.2-0.1-2.9 0.7c-0.2 0.2-0.3 0.5-0.1 0.6 0.2 0.2 0.5 0.1 0.7 0.1 0.8-0.1 1.6 0.5 1.7 1.3 0.2 0.9-0.2 2.3-1 2.3"/>
				</g>
				<path class="st8" d="m362.9 252.5s-0.1 0.3-0.6 0.4-1.4-0.2-1.7-1.1-0.1-1.9-0.1-3.1c0.1-1.2 0.2-2.4 0.3-3.7 0.2-2.6 0.4-5 0.6-6.7s0.3-2.8 0.4-2.8 0 1.1-0.1 2.8-0.2 4.1-0.4 6.7c-0.1 1.3-0.2 2.5-0.3 3.7-0.1 1.1-0.3 2.2 0 2.9 0.2 0.8 1 1.1 1.4 1.1 0.3 0.1 0.5-0.2 0.5-0.2z"/>
				<path class="st13" d="m367.5 242c0.1-2.7 2.2-5.2 4.9-5.7 2.6-0.5 5.5 1 6.6 3.5"/>
				<path class="st35" d="m371.2 236.6c-0.6 0.5-0.9 1.3-0.8 2.1s0.4 1.5 1 2c0.4 0.3 0.8 0.6 1.3 0.5 0.4 0 0.8-0.3 1.1-0.6s0.4-0.7 0.5-1.1c0.2-0.6 0.2-1.3 0-1.9s-0.7-1.2-1.3-1.3c-0.6-0.2-1.4 0-1.7 0.6"/>
					<path class="st8" d="m379 239.8c-0.2 0.1-0.5-0.8-1.6-1.6-1-0.9-2.9-1.7-4.9-1.4-2 0.4-3.4 1.9-4.1 3.1s-0.7 2.1-0.9 2.1c-0.1 0-0.3-1 0.3-2.4 0.5-1.4 2.1-3.3 4.5-3.7s4.6 0.7 5.6 1.8 1.2 2.1 1.1 2.1z"/>
				<path class="st13" d="m358.7 242.4c-0.1-2.7-2.2-5.2-4.9-5.7-2.6-0.5-5.5 1-6.6 3.5"/>
					<path class="st8" d="m347.3 240.3c-0.1 0 0-1 1.1-2.2 1-1.1 3.1-2.3 5.6-1.8 2.4 0.5 4 2.3 4.5 3.7 0.6 1.4 0.4 2.4 0.3 2.4-0.2 0-0.2-0.9-0.9-2.1-0.6-1.2-2.1-2.7-4.1-3.1s-3.9 0.5-4.9 1.4c-1.1 0.9-1.5 1.7-1.6 1.7z"/>
				<path class="st35" d="m355.1 237.1c0.6 0.5 0.9 1.3 0.8 2.1s-0.4 1.5-1 2c-0.4 0.3-0.8 0.6-1.3 0.5-0.4 0-0.8-0.3-1.1-0.6s-0.4-0.7-0.5-1.1c-0.2-0.6-0.2-1.3 0-1.9s0.7-1.2 1.3-1.3c0.6-0.2 1.4 0 1.7 0.6"/>
			<path class="st13" d="m359.6 257c1.7 0.9 3.7 1.2 5.6 0.8s3.6-1.5 4.7-3.1"/>
			<path class="st24" d="m347.7 232.2c2.9 1.5 6 2.5 9.2 3 0.5 0.1 0.9 0.1 1.4 0 0.4-0.1 0.9-0.4 1-0.9 0.2-0.7-0.5-1.3-1.1-1.7-2.7-1.7-6.1-2.3-9.2-1.7-0.3 0.1-0.7 0.2-0.9 0.4-0.2 0.3-0.1 0.8 0.3 0.8"/>
				<path class="st8" d="m387 245.2c-0.1 0 0.4-0.9-0.1-2.3-0.2-0.6-0.8-1.3-1.7-1.6s-2 0.1-2.4 1.1c-0.2 0.3-0.2 0.7-0.2 1.1h-0.4c0.4-1.2 1.9-1.3 2.6-0.6s0.7 1.6 0.4 2.2-0.7 0.9-1 1.1-0.5 0.2-0.5 0.2c-0.1-0.1 0.7-0.4 1.2-1.5 0.2-0.5 0.1-1.3-0.4-1.8s-1.7-0.4-1.9 0.4c0 0.1-0.2 0.2-0.3 0.1-0.1 0-0.1-0.1-0.2-0.2-0.1-0.4 0-0.9 0.2-1.4 0.3-0.5 0.7-1 1.3-1.2 0.5-0.2 1.1-0.2 1.6-0.1 1 0.3 1.7 1.1 1.9 1.8s0.2 1.4 0.1 1.8c0 0.7-0.2 0.9-0.2 0.9z"/>
				<path class="st8" d="m350.3 244.3c0.1 0.1 0.1 0.3 0 0.5s-0.3 0.3-0.4 0.3c-0.1-0.1-0.1-0.3 0-0.5s0.3-0.3 0.4-0.3z"/>
				<path class="st33" d="m378.4 231.5c0 0.2-2.8 0.9-6.3 1.6s-6.4 1.1-6.4 0.9 2.8-0.9 6.3-1.6 6.4-1.1 6.4-0.9z"/>
			<g class="st36">
				<path class="st37" d="m380.9 245.8c0.4 2-1.9 4.1-5.1 4.4s-5.8-1.4-5.8-3.4 2.3-3.6 5.1-3.9 5.4 0.9 5.8 2.9z"/>
			</g>
			<g class="st36">
				<path class="st37" d="m356.2 246.3c0.4 2-1.9 4.1-5.1 4.4s-5.8-1.4-5.8-3.4 2.3-3.6 5.1-3.9c2.9-0.2 5.4 0.9 5.8 2.9z"/>
			</g>
			<path class="st33" d="m372.4 213.4c-1.5 11.6-13.4 18.8-19 29.1-6.1 11.3-4 25.2-1.7 37.8 2.3 12.7 4.5 26.5-1.5 37.9-2.7 5.1-6.9 9.5-7.9 15.2-0.6 3.5 0 7.4-2.2 10.2-3 3.8-9.1 2.9-13.1 0.3-6.6-4.1-11-11.6-11.4-19.4-0.7-15.9 13.8-29.3 13.4-45.2-0.1-3.2-0.8-6.5-0.3-9.7 0.7-4.2 3.5-7.8 4.8-11.9 2-6.6-0.2-13.6-0.2-20.5 0-14.5 11.3-28.1 25.6-30.8 2.6-0.5 5.3-0.6 7.8 0.2s4.8 2.7 5.5 5.2"/>
				<path class="st8" d="m392 352.6s-0.1-0.1-0.2-0.4c-0.2-0.4-0.3-0.8-0.5-1.2-0.4-1.1-1-2.6-1.6-4.5s-1.2-4.3-1.3-7.1c-0.1-1.4 0-2.8 0.3-4.3s0.8-2.9 1.5-4.3c1.3-2.8 2.7-5.5 3.1-8.1s0-5.1-0.7-7-1.8-3.2-2.6-4-1.4-1.1-1.4-1.1 0.1 0.1 0.4 0.2 0.6 0.4 1.1 0.8c0.9 0.7 2 2 2.8 4 0.8 1.9 1.2 4.4 0.8 7.1s-1.8 5.4-3.1 8.2-1.9 5.7-1.8 8.4 0.7 5 1.2 7c0.6 2 1.1 3.5 1.5 4.6 0.2 0.5 0.3 0.9 0.4 1.2s0.1 0.5 0.1 0.5z"/>
				<path class="st20" d="m363.4 330.2c-0.2-0.1 1.4-3.2 1.5-7.5 0.1-4.2-1.4-7.5-1.2-7.5 0.1 0 0.6 0.7 1 2.1 0.5 1.3 0.9 3.3 0.8 5.5 0 2.2-0.5 4.1-1.1 5.5-0.4 1.2-0.9 1.9-1 1.9z"/>
				<path class="st8" d="m341.3 355.8c0-0.1 2.2 0.4 5-1.3 2.9-1.6 5.8-5.2 8.9-9.2 3-4 5.5-7.9 7.2-10.7 0.8-1.4 1.5-2.6 1.9-3.4s0.7-1.2 0.7-1.2-0.2 0.5-0.6 1.3-1 2-1.8 3.5c-1.6 2.9-4 6.8-7.1 10.8-1.5 2-3 3.9-4.5 5.5s-3.1 2.9-4.5 3.7c-1.5 0.8-2.8 1.1-3.8 1.2-0.9-0.1-1.4-0.2-1.4-0.2z"/>
			<path class="st32" d="m337.8 368s-11.5 8.4-4.5 52.2l-6.6 93.9 100.2-14.4-29.5-124.8-59.6-6.9z"/>
				<path class="st8" d="m395.2 362.5c0 0.1-12.1-0.8-27-2.1s-27-2.4-27-2.5 12.1 0.8 27 2.1 27 2.4 27 2.5z"/>
				<path class="st8" d="m386.7 441.1s-4.1-3.6-9.9-10.1c-1.4-1.6-3-3.4-4.6-5.5-1.6-2-3.2-4.2-5-6.5-3.3-4.7-6.8-10-10-15.9s-5.8-11.6-7.9-17c-1-2.7-2-5.2-2.8-7.7-0.8-2.4-1.5-4.7-2.1-6.8-2.3-8.4-3.1-13.7-3.1-13.7s0.1 0.3 0.2 0.9c0.2 0.7 0.4 1.6 0.6 2.7 0.2 1.2 0.6 2.6 1 4.3s0.9 3.6 1.5 5.7 1.3 4.4 2.1 6.8 1.8 5 2.8 7.7c2.2 5.3 4.8 11.1 7.9 16.9 3.2 5.8 6.6 11.1 9.9 15.8 1.7 2.3 3.3 4.5 4.9 6.5s3.1 3.8 4.5 5.5 2.8 3.1 3.9 4.4c1.2 1.3 2.2 2.3 3.1 3.2l2 2c0.8 0.5 1 0.8 1 0.8z"/>
			<path class="st8" d="m384.3 249.1s0.1 0.3 0.2 1c0.1 0.8 0.3 1.7 0.4 2.7 0.3 2.5 0.8 5.6 1.2 9.1v0.2h-0.2c-0.4 0.1-0.9 0.2-1.4 0.2s-1.1-0.2-1.5-0.6-0.4-1-0.4-1.5l0.3-2.7c0.2-1.6 0.3-3.1 0.5-4.5 0.1-1.1 0.3-2.1 0.4-3 0.1-0.7 0.2-1.1 0.2-1.1v1.1c-0.1 0.9-0.1 1.9-0.2 3-0.1 1.4-0.3 2.9-0.4 4.5-0.1 0.9-0.2 1.7-0.2 2.7 0 0.4 0 0.9 0.3 1.2s0.7 0.4 1.2 0.4c0.4 0 0.9-0.1 1.3-0.2l-0.2 0.2c-0.4-3.4-0.8-6.5-1.1-9.1-0.1-1-0.2-1.9-0.3-2.7-0.2-0.5-0.2-0.9-0.1-0.9z"/>
			<path class="st8" d="m559 215.4s-31 2.4-30.6 34.6 0 28.5 0 28.5l45.2 7.1 1.4-7.6 0.9 8.1h9.4s-3.6-29.4-4.5-36c-0.9-6.7-0.7-32.5-11.2-30.7l-3.8 2.2c0-0.1 0.9-7.9-6.8-6.2z"/>
			<path class="st1" d="m582.7 349s2.7-30.5 8.5-41.5c4.9-9.4-5.4-22.8-17.5-25.4s-24.9-2.1-24.9-2.1l-26.6 28.6c11.3 12.6 12.9 41.9 12.9 41.9s0.6 8.9-0.3 11.4c0 0 53.9 7.2 54 2.9 0.2-4.3-4-9.1-4-9.1"/>
			<path class="st1" d="m546.6 266.5v12.6s-7.5 5.1-20.8 2.8l31.1 15 22.9-12.3s-4.5-1.5-12.7-5.7v-12.4h-20.5z"/>
				<path class="st7" d="m550.1 225.3c-8.7 2.3-13.2 9.3-12.6 18.3 0.9 13.1 3.4 32.8 18.6 31.6 23.3-1.9 20.3-31.2 19.2-40.6 0 0-3.2-10.9-19.3-10.5-2.2-0.1-4.1 0.7-5.9 1.2z"/>
				<path class="st7" d="m574.7 253.8c1.8 1.5 3.9 1.9 5.4 0.1s1.9-4.4 1.1-6.7c-1-3.2-3.9-3.3-6.1-1.6"/>
				<g class="st11">
					<path class="st20" d="m576.8 251.8c-0.5-0.1-1 0.4-1 0.9 0.1 0.5 0.6 0.9 1.1 0.9s1-0.2 1.4-0.6 0.6-0.8 0.9-1.3c0.4-0.7 0.9-1.5 0.9-2.4 0-1.1-0.7-2.1-1.7-2.5s-2.2-0.1-2.9 0.7c-0.2 0.2-0.3 0.5-0.1 0.6 0.2 0.2 0.5 0.1 0.7 0.1 0.8-0.1 1.6 0.5 1.7 1.3 0.2 0.9-0.2 2.3-1 2.3"/>
				</g>
				<path class="st8" d="m557.3 257.5s-0.1 0.3-0.4 0.4c-0.4 0.1-1.1 0.1-1.6-0.5s-0.5-1.5-0.5-2.4c0.1-0.9 0.1-1.9 0.2-2.9 0.1-2 0.2-3.9 0.4-5.2 0.1-1.3 0.2-2.1 0.3-2.1s0.1 0.8 0 2.2c-0.1 1.3-0.1 3.2-0.2 5.2-0.1 1-0.1 1.9-0.2 2.9-0.1 0.9 0 1.7 0.3 2.1 0.4 0.5 0.9 0.6 1.3 0.5 0.3 0 0.4-0.2 0.4-0.2z"/>
				<path class="st8" d="m580.1 250.5c-0.1 0 0.4-0.9-0.1-2.3-0.2-0.6-0.8-1.3-1.7-1.6s-2 0.1-2.4 1.1c-0.2 0.3-0.2 0.7-0.2 1.1h-0.4c0.4-1.2 1.9-1.3 2.6-0.6s0.7 1.6 0.4 2.2-0.7 0.9-1 1.1-0.5 0.2-0.5 0.2c-0.1-0.1 0.7-0.4 1.2-1.5 0.2-0.5 0.1-1.3-0.4-1.8s-1.7-0.4-1.9 0.4c0 0.1-0.2 0.2-0.3 0.1-0.1 0-0.1-0.1-0.2-0.2-0.1-0.4 0-0.9 0.2-1.4 0.3-0.5 0.7-1 1.3-1.2 0.5-0.2 1.1-0.2 1.6-0.1 1 0.3 1.7 1.1 1.9 1.8s0.2 1.4 0.1 1.8c0 0.7-0.1 0.9-0.2 0.9z"/>
			<path class="st8" d="m535.9 241c0 1.1 7.3-1.9 7.3-2.6s3.4-8.3 3.4-8.3l-0.1 10.1 14.7-0.3 0.8-9.6 2.6 8.1 10.7 2.2s3.8-15.3-6.3-17-32.4-4.6-33.1 17.4z"/>
				<path class="st30" d="m554 252.1"/>
				<path class="st13" d="m573.9 245.8c-1.9-1.7-4.7-2.6-7.3-2.2-2.6 0.3-5 1.9-6.3 4l13.6-1.8z"/>
					<path class="st8" d="m573.8 246.1c-0.1 0.1-0.8-0.4-2-0.9s-3.1-1-5.1-0.7c-2 0.2-3.7 1.1-4.8 1.9s-1.6 1.5-1.7 1.4 0.2-0.9 1.2-2c1-1 2.9-2.1 5.1-2.4 2.3-0.3 4.3 0.4 5.5 1.1 1.4 0.8 1.9 1.6 1.8 1.6z"/>
				<path class="st8" d="m564.1 244.6c0.2 0.8 0.7 1.5 1.4 1.9s1.7 0.4 2.3-0.2c0.5-0.5 0.6-1.2 0.7-1.9 0-0.3 0-0.5-0.1-0.7-0.2-0.2-0.5-0.2-0.8-0.2-0.7 0-1.4 0-2.1 0.2s-1.3 0.6-1.7 1.2"/>
				<path class="st13" d="m539.1 246.8c1.9-1.7 4.7-2.6 7.3-2.2 2.6 0.3 5 1.9 6.3 4l-13.6-1.8z"/>
					<path class="st8" d="m539.2 247.1c-0.1-0.1 0.5-0.8 1.7-1.6 1.3-0.7 3.3-1.4 5.5-1.1 2.3 0.3 4.1 1.4 5.1 2.4s1.3 1.9 1.2 2-0.6-0.6-1.7-1.4-2.7-1.7-4.8-1.9c-2-0.2-3.9 0.2-5.1 0.7-1.1 0.4-1.8 1-1.9 0.9z"/>
				<path class="st8" d="m548.9 245.5c-0.2 0.8-0.7 1.5-1.4 1.9s-1.7 0.4-2.3-0.2c-0.5-0.5-0.6-1.2-0.7-1.9 0-0.3 0-0.5 0.1-0.7 0.2-0.2 0.5-0.2 0.8-0.2 0.7 0 1.4 0 2.1 0.2s1.3 0.6 1.7 1.2"/>
				<path class="st8" d="m561.8 257.3s0 0.6-0.3 1.6c-0.4 0.9-1.2 2.2-2.6 3-1.3 0.8-2.8 1-3.8 0.9s-1.6-0.4-1.6-0.4c0-0.1 0.6 0.1 1.6 0.1s2.3-0.2 3.6-1 2.1-1.9 2.5-2.7c0.4-0.9 0.5-1.5 0.6-1.5z"/>
				<path class="st8" d="m563.3 258c-0.1 0.1-0.7-0.2-1.5-0.3s-1.5 0.2-1.5 0.1c-0.1-0.1 0.6-0.6 1.6-0.5 0.9 0 1.5 0.6 1.4 0.7z"/>
			<g class="st28">
				<path class="st15" d="m554.5 262.8c0.1-0.8 0.6-1.6 1.3-2.1s1.5-0.8 2.3-1.1c0.6-0.2 1.2-0.3 1.8-0.1 0.7 0.3 1 1.1 1 1.8-0.1 0.7-0.5 1.4-1 1.9-0.8 0.8-1.9 1.3-3 1.2s-2.2-0.9-2.5-2"/>
			</g>
				<path class="st8" d="m571.3 241.2c0 0.3-2.6 0.6-5.9 0.9s-5.9 0.6-6 0.3 2.5-1 5.8-1.3c3.4-0.4 6.1-0.2 6.1 0.1z"/>
				<path class="st8" d="m550.7 243.3c-0.2 0.3-2.4-1.2-5.6-1.4s-5.6 1-5.7 0.7c-0.1-0.1 0.5-0.6 1.5-1s2.6-0.8 4.3-0.7 3.2 0.7 4.1 1.2c1 0.6 1.5 1.1 1.4 1.2z"/>
			<path class="st8" d="m578.7 340.1s-0.5 0.1-1.4 0.3c-1.1 0.2-2.3 0.4-3.8 0.6-3.2 0.5-7.5 1.3-12.3 2.4s-9.1 2.3-12.1 3.3c-1.4 0.4-2.6 0.8-3.6 1.1-0.9 0.3-1.3 0.4-1.3 0.4s0.5-0.2 1.3-0.5 2.1-0.8 3.6-1.3c3.1-1 7.3-2.3 12.1-3.4s9.2-1.8 12.4-2.3c1.6-0.2 2.9-0.4 3.8-0.4 0.8-0.2 1.3-0.3 1.3-0.2z"/>
			<path class="st8" d="m578.2 336.6h-0.4c-0.3 0-0.7-0.1-1.2-0.2-1.2-0.2-2.6-0.4-4.3-0.6-3.6-0.5-8.6-1.1-14.1-1.4s-10.6-0.3-14.2-0.2c-1.7 0-3.1 0.1-4.3 0.1h-1.2-0.4s0.1 0 0.4-0.1c0.4 0 0.7-0.1 1.2-0.1 1-0.1 2.5-0.2 4.3-0.3 3.6-0.2 8.7-0.2 14.2 0.1 5.6 0.3 10.6 0.9 14.2 1.5 1.8 0.3 3.3 0.5 4.3 0.7 0.4 0.1 0.8 0.2 1.1 0.2 0.2 0.2 0.4 0.3 0.4 0.3z"/>
			<path class="st8" d="m549.2 280c-0.1 0-0.5-1.4-0.6-3.2s0.2-3.2 0.3-3.2 0.1 1.4 0.2 3.2 0.3 3.2 0.1 3.2z"/>
			<path class="st8" d="m552.3 280.6c-0.1 0-0.5-1.3-0.6-3s0.2-3.1 0.3-3.1 0 1.4 0.1 3.1c0.2 1.7 0.4 3 0.2 3z"/>
			<path class="st8" d="m556.4 280.8c-0.1 0-0.3-1.2-0.5-2.7-0.1-1.5-0.2-2.7-0.1-2.7s0.3 1.2 0.5 2.7c0.2 1.4 0.2 2.7 0.1 2.7z"/>
			<path class="st8" d="m560.2 281c-0.1 0-0.3-1.5-0.3-3.4-0.1-1.9 0-3.5 0.1-3.5s0.3 1.5 0.3 3.4c0 2 0 3.5-0.1 3.5z"/>
			<path class="st8" d="m563.9 280.9c-0.1 0-0.1-1.8-0.3-4-0.1-2.2-0.4-4-0.2-4 0.1 0 0.5 1.7 0.7 4 0.2 2.2-0.1 4-0.2 4z"/>
			<path class="st8" d="m584.3 497.6v-1.3c0-0.9 0-2.2 0.1-3.8 0.1-3.3 0.1-8.1 0.2-14 0.1-11.9 0-28.2-0.8-46.3s-2.1-34.4-3.2-46.2c-0.6-5.9-1-10.7-1.4-14-0.2-1.6-0.3-2.9-0.4-3.8s-0.1-1.3-0.1-1.3 0.1 0.5 0.2 1.3c0.1 0.9 0.3 2.2 0.5 3.8 0.4 3.3 0.9 8.1 1.5 14 1.2 11.8 2.5 28.1 3.3 46.2s0.9 34.5 0.7 46.3c-0.1 5.9-0.2 10.7-0.3 14-0.1 1.6-0.1 2.9-0.1 3.8-0.1 0.8-0.2 1.3-0.2 1.3z"/>
			<path class="st8" d="m587.8 384.6c0 0.1-2.7 0.2-6.1 0.2s-6.1-0.1-6.1-0.2 2.7-0.2 6.1-0.2 6.1 0.1 6.1 0.2z"/>
			<path class="st8" d="m588.7 390.3c0 0.1-3.2 0.8-7.2 1.4-4 0.7-7.2 1.1-7.2 1s3.2-0.8 7.2-1.4c3.9-0.6 7.2-1.1 7.2-1z"/>
			<path class="st19" d="m655.1 190.2c-8.7 2.3-14.5 10.5-13.9 19.5 0.8 13.1 4.7 31.6 19.9 30.4 23.3-1.9 20.3-31.2 19.2-40.6 0 0-3.1-10.9-19.3-10.5-2.1-0.1-4.1 0.7-5.9 1.2z"/>
				<path class="st8" d="m662.7 221.6s0 0.2-0.4 0.4c-0.3 0.1-1 0.1-1.5-0.4s-0.7-1.4-0.6-2.2c0-0.8 0.1-1.7 0.2-2.7 0.2-1.9 0.6-3.6 0.8-4.8s0.3-2 0.3-2c0.1 0 0.1 0.8 0 2-0.1 1.3-0.4 3-0.7 4.8-0.1 1.8-0.6 3.7 0.2 4.6 0.4 0.4 0.9 0.5 1.2 0.4 0.4 0.1 0.5-0.1 0.5-0.1z"/>
				<path class="st13" d="m665.4 214.6c0.1-2.7 2.2-5.2 4.9-5.7 2.6-0.5 5.5 1 6.6 3.5"/>
				<path class="st38" d="m669 209.3c-0.6 0.5-0.9 1.3-0.8 2.1s0.4 1.5 1 2c0.4 0.3 0.8 0.6 1.3 0.5 0.4 0 0.8-0.3 1.1-0.6s0.4-0.7 0.5-1.1c0.2-0.6 0.2-1.3 0-1.9s-0.7-1.2-1.3-1.3c-0.6-0.2-1.4 0-1.7 0.6"/>
				<path class="st13" d="m657.2 215.8c-0.1-2.7-2.2-5.2-4.9-5.7-2.6-0.5-5.5 1-6.6 3.5"/>
				<path class="st38" d="m653.6 210.4c0.6 0.5 0.9 1.3 0.8 2.1s-0.4 1.5-1 2c-0.4 0.3-0.8 0.6-1.3 0.5-0.4 0-0.8-0.3-1.1-0.6s-0.4-0.7-0.5-1.1c-0.2-0.6-0.2-1.3 0-1.9s0.7-1.2 1.3-1.3c0.6-0.2 1.4 0 1.7 0.6"/>
				<path class="st39" d="m676.3 207.5c-0.5 0.9-3.1 0.3-6 0.7-3 0.2-5.4 1.2-6.1 0.5-0.3-0.4 0-1.2 1-2.1s2.7-1.7 4.7-1.9 3.9 0.3 5 1c1.2 0.6 1.6 1.4 1.4 1.8z"/>
				<path class="st39" d="m657.5 207.8c-0.1 1-2.8 1.6-6 1.5s-5.9-0.8-5.9-1.8 2.7-1.9 6-1.8 6 1.1 5.9 2.1z"/>
			<path class="st39" d="m663.8 254.4s-19.1 1.6-20.1-15.2-1.5-21.3-1.5-21.3l1.1 3.7s4.1 6.6 9 6.2c0 0 1.2-5.4 10.2-5.3s11.3 7 11.3 7 4-1.9 6-7.3l1.5-5.5s4.8 36.2-17.5 37.7z"/>
			<path class="st39" d="m639.8 213.4c-0.4-6.3-0.9-14.2 0.7-20.2 1.6-6.1 5.5-11.9 11.3-14.1 3.5-1.3 7.5-1.3 10.9 0.1s6.3 4.2 7.9 7.5c3.4-1.4 7.4-2 10.6-0.2 2.9 1.6 4.6 5 4.9 8.3 0.4 3.3-0.4 6.7-1.2 9.9-0.8 3.3-1.7 6.5-1.7 9.9h-1.9l-0.7-14.9s-5.2-1.7-6.5-7.9c0 0-9.5 11.7-24.9 1 0 0-5.6 4.4-6 8.1-0.8 7.2-1.4 12.4-1.4 12.4l-2 0.1z"/>
				<path class="st19" d="m679.7 222.1c1.8 1.5 3.9 1.9 5.4 0.1s1.9-4.4 1.1-6.7c-1-3.2-3.9-3.3-6.1-1.6"/>
				<g class="st11">
					<path class="st20" d="m681.9 220.1c-0.5-0.1-1 0.4-1 0.9 0.1 0.5 0.6 0.9 1.1 0.9s1-0.2 1.4-0.6 0.6-0.8 0.9-1.3c0.4-0.7 0.9-1.5 0.9-2.4 0-1.1-0.7-2.1-1.7-2.5s-2.2-0.1-2.9 0.7c-0.2 0.2-0.3 0.5-0.1 0.6 0.2 0.2 0.5 0.1 0.7 0.1 0.8-0.1 1.6 0.5 1.7 1.3 0.2 0.9-0.2 2.3-1 2.3"/>
				</g>
					<path class="st8" d="m685.1 219c-0.1 0 0.4-0.9-0.1-2.3-0.2-0.7-0.8-1.3-1.7-1.6s-2 0.1-2.4 1.1c-0.2 0.3-0.2 0.7-0.2 1.1h-0.4c0.4-1.2 1.9-1.3 2.6-0.6s0.7 1.6 0.4 2.2-0.7 0.9-1 1.1-0.5 0.2-0.5 0.2c-0.1-0.1 0.7-0.4 1.2-1.5 0.2-0.5 0.1-1.3-0.4-1.8s-1.7-0.4-1.9 0.4c0 0.1-0.2 0.2-0.3 0.1-0.1 0-0.1-0.1-0.2-0.2-0.1-0.4 0-0.9 0.2-1.4 0.3-0.5 0.7-1 1.3-1.2 0.5-0.2 1.1-0.2 1.6-0.1 1 0.3 1.7 1.1 1.9 1.8s0.2 1.4 0.1 1.8c0 0.7-0.2 0.9-0.2 0.9z"/>
				<path class="st19" d="m643.2 221.6c-1.8 1.5-3.9 1.9-5.4 0.1s-1.9-4.4-1.1-6.7c1-3.2 3.9-3.3 6.1-1.6"/>
				<g class="st11">
					<path class="st20" d="m641.1 219.6c0.5-0.1 1 0.4 1 0.9-0.1 0.5-0.6 0.9-1.1 0.9s-1-0.2-1.4-0.6-0.6-0.8-0.9-1.3c-0.4-0.7-0.9-1.5-0.9-2.4 0-1.1 0.7-2.1 1.7-2.5s2.2-0.1 2.9 0.7c0.2 0.2 0.3 0.5 0.1 0.6-0.2 0.2-0.5 0.1-0.7 0.1-0.8-0.1-1.6 0.5-1.7 1.3-0.2 0.9 0.2 2.3 1 2.3"/>
				</g>
					<path class="st8" d="m637.9 218.5s-0.2-0.2-0.3-0.6-0.2-1 0.1-1.8c0.2-0.7 0.9-1.5 1.9-1.8 0.5-0.1 1.1-0.2 1.6 0.1 0.5 0.2 1 0.6 1.3 1.2 0.2 0.4 0.3 0.9 0.2 1.4 0 0.1-0.1 0.2-0.2 0.2s-0.1-0.1-0.2-0.2c-0.2-0.8-1.4-0.9-1.9-0.4s-0.6 1.3-0.4 1.8c0.4 1.1 1.3 1.4 1.2 1.5 0 0-0.2 0-0.5-0.2s-0.7-0.5-1-1.1-0.3-1.5 0.4-2.2c0.6-0.7 2.2-0.6 2.6 0.6h-0.4c0.1-0.4 0-0.7-0.2-1.1-0.5-0.9-1.6-1.3-2.4-1.1-0.9 0.2-1.5 0.9-1.7 1.6-0.5 1.1 0 2.1-0.1 2.1z"/>
			<path class="st40" d="m660.1 213.7c-0.6 4.8-5 8.2-9.8 7.5-4.8-0.6-8.2-5-7.5-9.8 0.6-4.8 5-8.2 9.8-7.5 4.7 0.6 8.1 5 7.5 9.8z"/>
			<path class="st40" d="m680.5 213.6c-0.6 4.8-5 8.2-9.8 7.5-4.8-0.6-8.2-5-7.5-9.8 0.6-4.8 5-8.2 9.8-7.5 4.7 0.6 8.1 5 7.5 9.8z"/>
				<path class="st38" d="m663.2 211.7c0.1 0.2-0.6 0.6-1.5 0.7s-1.7-0.1-1.7-0.3 0.7-0.3 1.6-0.4 1.6-0.2 1.6 0z"/>
				<path class="st38" d="m683.2 212.5c0 0.2-0.6 0.4-1.3 0.3-0.8-0.1-1.3-0.4-1.2-0.6s0.6-0.2 1.3-0.1c0.6 0.1 1.2 0.2 1.2 0.4z"/>
				<path class="st38" d="m643.5 212.2c0 0.2-0.9 0.5-2.1 0.6s-2.1 0-2.1-0.2 0.9-0.5 2.1-0.6c1.1-0.1 2.1 0 2.1 0.2z"/>
				<path class="st8" d="m665.6 225.2c0.1 0-0.5 1.8-2.4 3.2-1.8 1.4-3.8 1.6-3.7 1.5 0-0.1 1.8-0.5 3.5-1.8s2.5-3 2.6-2.9z"/>
				<path class="st8" d="m667.2 226c-0.1 0.1-0.6-0.2-1.4-0.4-0.8-0.1-1.4 0-1.5-0.1s0.6-0.5 1.5-0.3c0.9 0.1 1.4 0.7 1.4 0.8z"/>
				<path class="st8" d="m645.8 213.6s0-0.2 0.2-0.6 0.5-0.9 1-1.4c1-1 3.1-2.1 5.4-1.7 2.3 0.5 3.8 2.2 4.4 3.5 0.3 0.7 0.4 1.3 0.5 1.7v0.6c-0.1 0-0.1-0.9-0.7-2.2-0.6-1.2-2.1-2.8-4.2-3.2s-4.1 0.6-5.1 1.5c-1.1 1-1.4 1.9-1.5 1.8z"/>
				<path class="st8" d="m676.8 212.5c-0.1 0-0.4-0.8-1.5-1.8-1-0.9-3-1.9-5.1-1.5s-3.6 2-4.2 3.2c-0.6 1.3-0.6 2.2-0.7 2.2 0 0-0.1-0.2 0-0.6 0-0.4 0.2-1 0.5-1.7 0.6-1.3 2.1-3.1 4.4-3.5s4.4 0.7 5.4 1.7c0.5 0.5 0.9 1 1 1.4 0.2 0.4 0.2 0.6 0.2 0.6z"/>
		<path class="st2" d="m636.3 257.3c-1.3-1.2-19.8 8.1-21.6 14.4-2.7 9.5-26.9 36.4-25.8 38.5 0.3 0.6-5 28.5-5 28.5 2 1.8 21.1-11.8 30.1-16.2l2.6 3.1c5.5-3.9 10.3-12.5 10.3-12.5l3.4-17 6-38.8z"/>
		<path class="st19" d="m707.8 339.7s-9.8 3-12.6 5.5c-2.8 2.6-8.4 6.9-7.7 7.2s2.6 1.8 5.2 0.2c2.6-1.5 5.6-2.1 5.9-1.2s-1 6.7-1.6 8.6-1 14.7-0.7 14.9 2.2 0.7 3.2-3c0.9-3.7 2.3-9.9 2.3-9.9l-0.4 14.1s2.8 0.4 3.2-1.3l0.9-12.3v12.5s1.8 0.4 2.2-2.4 0.5-10 0.5-10l0.6 9.1s1.6 0.5 1.8-3.3c0.2-3.9 4-17.3 4-17.3l-6.8-11.4z"/>
		<path class="st19" d="m682.9 286.7l30.3 16-13.7 40.3 15 8.2s30.1-48.4 26.5-55.5c-5-10-47.6-35.9-47.6-35.9l-10.5 26.9z"/>
		<path class="st2" d="m681.1 289c0.2 0 23.7 14.5 23.7 14.5l21.5-23.6s-22.5-20.6-44.1-24.3l-1.1 33.4z"/>
		<path class="st19" d="m613.9 322.6l-15.2-26.7s-8.8 10.3-9.9 14.4c-1.1 4.2-5.4 29.8-5 29.8 9.5-3.7 19.6-9.7 30.1-17.5z"/>
			<path class="st41" d="m682.9 256.1c0.3 0.3-1.4 2.9-5.2 6-1.9 1.5-4.4 3.2-7.5 4.5s-6.7 2.2-10.6 2.2c-7.7 0-14.4-2.8-18.5-5.6s-5.8-5.4-5.5-5.7c0.4-0.4 2.7 1.5 6.8 3.5 4.1 2.1 10.2 4.2 17.2 4.2 6.8 0 12.7-2.8 16.7-5.2 3.9-2.4 6.3-4.3 6.6-3.9z"/>
			<path class="st41" d="m726.5 279.8c0.8 0.6-3.4 6.7-9.5 13.2s-11.9 11-12.6 10.3 3.9-6.3 9.9-12.8c6.2-6.4 11.5-11.3 12.2-10.7z"/>
			<path class="st41" d="m615 326.2c-0.8 0.6-5.9-5.2-10.3-13.5s-6.2-15.8-5.3-16.1c1-0.4 4.3 6.4 8.5 14.4 4.3 8.1 8 14.6 7.1 15.2z"/>
			<path class="st8" d="m691.2 298.2c0 0.1-11.6-0.9-26-2.2-14.3-1.3-26-2.5-25.9-2.7 0-0.1 11.6 0.9 26 2.2 14.3 1.4 26 2.6 25.9 2.7z"/>
			<path class="st8" d="m679.7 304.7c0 0.1-8.2-0.2-18.2-0.8-10-0.5-18.2-1.1-18.2-1.2s8.2 0.2 18.2 0.8c10.1 0.5 18.2 1.1 18.2 1.2z"/>
			<path class="st8" d="m624.4 327.7c-0.1 0 0.4-8.9 1.3-19.9 0.8-11 1.6-19.9 1.7-19.9s-0.4 8.9-1.3 19.9-1.6 19.9-1.7 19.9z"/>
			<path class="st8" d="m722.9 326.9c-0.1 0.1-1.3-1.9-2.1-4.7-0.9-2.7-1-5-0.9-5s0.5 2.2 1.3 4.9c0.9 2.7 1.9 4.8 1.7 4.8z"/>
			<path class="st8" d="m724.4 326.2c-0.1 0-0.8-2.2-1.3-5s-0.5-5.1-0.4-5.2c0.1 0 0.3 2.3 0.8 5.1s1 5.1 0.9 5.1z"/>
			<path class="st8" d="m727 324.1c-0.1 0-0.5-2.2-0.9-4.9s-0.6-5-0.5-5 0.5 2.2 0.9 4.9c0.3 2.7 0.6 5 0.5 5z"/>
			<path class="st8" d="m657 392.5s0.1 0.4 0.1 1v2.8 9.4c0 1.8-0.1 3.6 0 5.2 0 1.6 0.3 3 1.1 3.9 0.7 0.9 1.6 1.4 2.2 1.5s1 0 1 0-0.4 0.2-1 0.1c-0.7-0.1-1.7-0.5-2.5-1.5s-1.2-2.5-1.2-4.1v-5.2c0-3.7 0.1-7 0.1-9.4 0-1.1 0.1-2 0.1-2.8 0-0.6 0-0.9 0.1-0.9z"/>
			<path class="st8" d="m661.6 394.6c0 0.1-0.8 0.2-1.2 1.2-0.2 0.5-0.3 1.1-0.1 1.8 0.3 0.6 1 1 1.8 1s1.5-0.5 1.7-1.1 0-1.3-0.2-1.7c-0.6-0.9-1.4-1-1.3-1 0 0 0.9-0.1 1.6 0.9 0.3 0.5 0.6 1.2 0.3 2-0.2 0.8-1.1 1.4-2.1 1.4-0.9 0.1-1.9-0.5-2.2-1.2-0.3-0.8-0.1-1.6 0.2-2.1 0.6-1.2 1.6-1.2 1.5-1.2z"/>
			<path class="st8" d="m697.1 400.9s-0.3 0.1-1 0.2c-0.6 0.1-1.6 0.1-2.7-0.1-2.3-0.2-5.5-1.3-8.2-3.6-2.7-2.4-4.1-5.4-4.7-7.7-0.3-1.1-0.4-2.1-0.4-2.7v-1c0.1 0 0 1.4 0.7 3.6 0.6 2.2 2 5.1 4.7 7.4 2.6 2.3 5.7 3.3 8 3.6 2.2 0.4 3.6 0.2 3.6 0.3z"/>
			<path class="st8" d="m631.5 395.2s0 0.2-0.1 0.6-0.3 1-0.6 1.7c-0.6 1.4-1.8 3.1-3.6 4.6s-3.7 2.4-5.1 2.8c-0.7 0.2-1.3 0.3-1.7 0.3h-0.6c0-0.1 0.9-0.2 2.3-0.7s3.2-1.4 4.9-2.8 2.9-3.1 3.6-4.4c0.5-1.3 0.8-2.2 0.9-2.1z"/>
			<path class="st8" d="m685.1 497.2v-1-2.8c0.1-2.5 0.2-6 0.3-10.3 0.3-8.7 0.9-20.8 1.7-34.1 0.9-13.3 1.9-25.3 2.7-34 0.4-4.3 0.8-7.8 1-10.3 0.1-1.2 0.2-2.1 0.3-2.8 0.1-0.6 0.1-1 0.1-1s0 0.3-0.1 1-0.1 1.6-0.2 2.8c-0.2 2.5-0.5 6-0.9 10.3-0.8 8.7-1.7 20.7-2.6 34s-1.5 25.4-1.9 34.1c-0.2 4.3-0.3 7.8-0.4 10.3-0.1 1.2-0.1 2.1-0.1 2.8 0.2 0.7 0.1 1 0.1 1z"/>
			<path class="st8" d="m622.9 495.8c-0.1 0-0.3-20.5-0.3-45.9-0.1-25.3 0-45.9 0.1-45.9s0.3 20.5 0.3 45.9 0 45.9-0.1 45.9z"/>
</svg>
